<?xml version="1.0" encoding="UTF-8"?> <!-- Generator: Adobe Illustrator 23.0.2, SVG Export Plug-In . SVG Version: 6.00 Build 0) --> <svg xmlns="http://www.w3.org/2000/svg" xmlns:xlink="http://www.w3.org/1999/xlink" id="Capa_1" x="0px" y="0px" viewBox="0 0 511.8 511.8" style="enable-background:new 0 0 511.8 511.8;" xml:space="preserve"> <style type="text/css"> .st0{fill:#FF5364;} .st1{fill:#FB7B76;} .st2{fill:#DF4D60;} .st3{fill:#4FBA6F;} </style> <g> <path class="st0" d="M489,121.8v174c0,3.3-1.3,6.5-3.6,8.8c-2.3,2.3-5.5,3.6-8.8,3.6H141.1c-6.9,0-12.4-5.6-12.4-12.4V47.2 c0-6.9,5.6-12.4,12.4-12.4h335.5c6.9,0,12.4,5.6,12.4,12.4L489,121.8L489,121.8z"></path> <path class="st1" d="M485.9,39.1l-165.1,141c-6.9,5.8-17.1,5.8-24,0l-165.1-141c2.3-2.7,5.7-4.3,9.3-4.3h335.5 C480.2,34.8,483.6,36.4,485.9,39.1z"></path> <path class="st2" d="M484.6,305.2c-2.2,1.9-5.1,3-8,3H141.1c-3,0-5.8-1.1-8-3l137.6-147.4l26.2,22.3c6.9,5.8,17.1,5.8,24,0 l26.1-22.3L484.6,305.2z"></path> <path class="st3" d="M124.6,163l23.1,34.6c4.6,6.9,3.1,16.2-3.4,21.3l-28.4,22.1c-6.2,4.8-7.9,13.3-4.2,20.1 c8.3,15,16.2,32.7,55.4,71.8s56.9,47,71.8,55.4c6.8,3.8,15.4,2,20.1-4.2l22.1-28.4c5.1-6.5,14.4-8,21.3-3.4L338,376l40.2,26.8 c7,4.7,9.2,14.1,4.8,21.3l-19,31.7c-5,8.6-13.2,14.9-22.8,17.6c-31.6,8.7-101.4,10.5-213.3-101.4S17.7,190.4,26.4,158.7 c2.7-9.6,9-17.7,17.6-22.8l31.7-19c7.2-4.3,16.6-2.2,21.3,4.8L124.6,163z"></path> </g> </svg> 