<?xml version="1.0" encoding="UTF-8"?> <!-- Generator: Adobe Illustrator 23.0.2, SVG Export Plug-In . SVG Version: 6.00 Build 0) --> <svg xmlns="http://www.w3.org/2000/svg" xmlns:xlink="http://www.w3.org/1999/xlink" x="0px" y="0px" viewBox="0 0 216 108" style="enable-background:new 0 0 216 108;" xml:space="preserve"> <style type="text/css"> .st0{fill-rule:evenodd;clip-rule:evenodd;fill:#FFFFFF;} .st1{fill:#FFFFFF;} </style> <g> <g> <path class="st0" d="M132.3,2c-2.5,2.1-4,8.9,0.1,10.3C136.4,10.8,134.9,4,132.3,2"></path> <path class="st0" d="M125.5,10.4c-0.7,4.3,1.5,8.7,6.4,8.6C132.3,13.6,129.6,11.2,125.5,10.4"></path> <path class="st0" d="M139.2,10.4c-4.3,0.5-7.1,4.3-6.2,8.7C137.4,18.7,140,15.4,139.2,10.4"></path> <path class="st0" d="M131.9,26.9c0.1-5.1-2.2-7.8-6.9-8.1C124.9,23.7,127.3,27.2,131.9,26.9"></path> <path class="st0" d="M132.9,27c4.6,0.1,6.8-3.6,6.7-8.2c-0.1,0-0.1,0-0.2,0C135,19.2,132.4,22,132.9,27"></path> <path class="st0" d="M123.8,27.2c0.9,4.3,3,7.5,8.1,7.8C132.7,29.7,129.2,26.6,123.8,27.2"></path> <path class="st0" d="M132.9,35c4.8-0.5,7-3.5,8-7.8C135.8,26.5,131.7,29.5,132.9,35"></path> <path class="st0" d="M123.8,35.3c1,4.2,3.2,7.3,8,7.7C132.8,37.7,129,34.4,123.8,35.3"></path> <path class="st0" d="M132.8,43c4.9-0.3,7-3.5,8.1-7.8C135.5,34.7,132,37.4,132.8,43"></path> <path class="st0" d="M132.4,12.4c-4.1-1.4-2.6-8.2-0.1-10.3C134.9,4,136.4,10.8,132.4,12.4"></path> <path class="st0" d="M131.9,19c-4.9,0.1-7.1-4.3-6.4-8.6C129.6,11.2,132.3,13.6,131.9,19"></path> <path class="st0" d="M132.9,19.1c-0.9-4.4,1.9-8.2,6.2-8.7C140,15.4,137.4,18.7,132.9,19.1"></path> <path class="st0" d="M125,18.8c4.7,0.3,7,3,6.9,8.1C127.3,27.2,125,23.7,125,18.8"></path> <path class="st0" d="M139.5,18.8c0.1,0,0.1,0,0.2,0c0.1,4.6-2.1,8.3-6.7,8.2C132.4,22,135,19.2,139.5,18.8"></path> <path class="st0" d="M131.9,34.9c-5-0.2-7.1-3.4-8.1-7.8C129.2,26.6,132.7,29.7,131.9,34.9"></path> <path class="st0" d="M140.9,27.3c-1,4.2-3.2,7.3-8,7.8C131.7,29.5,135.8,26.5,140.9,27.3"></path> <path class="st0" d="M131.8,43c-4.8-0.4-7-3.4-8-7.7C129,34.4,132.8,37.7,131.8,43"></path> <path class="st0" d="M140.9,35.2c-1,4.2-3.1,7.4-8.1,7.8C132,37.4,135.5,34.7,140.9,35.2"></path> </g> <g> <path class="st0" d="M186.2,44.5c-7.9,0-14.3,6.2-13.7,14.7c0.5,7.3,5.6,11.9,12.5,12.4c3.3,0.2,6-0.4,8.3-1.4 c0.9-0.4,3.9-1.8,4.2-2.9c0.5-1.5,0-3.8,0-5.6c0-2,0-3.8,0-5.7c-3.8,0-7.6,0-11.4,0c0,1.8-0.1,3.4,0,5.1c1.9,0,3.8,0,5.7,0 c0.1,1.5,0.1,2.4,0,3.7c-1.5,1-3.2,1.6-5.6,1.6c-2.7-0.1-4.7-1.4-5.9-2.9c-3.6-4.6-1.4-12.9,4.9-13.6c3.6-0.4,5.9,1.2,7.8,2.6 c1.2-1.5,2.5-2.9,3.6-4.5C194,45.6,190.7,44.4,186.2,44.5"></path> <path class="st0" d="M129.5,45.1c0,20.2,0,14,0,34.2c1.9,0,3.8,0,5.7,0c0-20.3,0-14.2,0-34.5c-1.7,0.5-3.9,0.6-5.6,0 C129.5,44.8,129.5,44.9,129.5,45.1"></path> <path class="st0" d="M10.4,45.6c0,8.7,0,17.3,0,26c1.9,0,3.9,0,5.8,0c0.1-3.3-0.1-7,0.1-10.1c4.7,0,9.4,0,14.1,0 c0-1.8,0-3.6,0-5.4c-4.7-0.1-9.7,0.1-14.2-0.1c0-1.8,0-3.5,0-5.3c5.3,0,10.6,0,15.8,0c0-1.8,0-3.6,0-5.4c-7.2,0-14.4,0-21.5,0 C10.4,45.3,10.4,45.4,10.4,45.6"></path> <path class="st0" d="M39.1,45.6c0,8.7,0,17.3,0,26c7.2,0,14.4,0,21.6,0c0-1.7,0-3.4,0-5.2c-5.3,0-10.6,0-15.8,0 c0.1-1.8-0.1-3.9,0.1-5.5c4.6,0,9.2,0,13.9,0c0-1.7,0-3.5,0-5.2c-4.6-0.1-9.5,0.1-14-0.1c0.1-1.7-0.1-3.7,0.1-5.2 c4.6,0.2,11.8,0,15.5,0.1c0-1.8,0-3.5,0-5.3c-7.1,0-14.2,0-21.3,0C39,45.3,39,45.4,39.1,45.6"></path> <path class="st0" d="M69.4,45.6c0,8.7,0,17.3,0,26c6.9,0,13.7,0,20.6,0c0-1.7,0-3.4,0-5.2c-4.9-0.1-10.1,0.1-14.8-0.1 c0-1.8,0-3.6,0-5.4c4.4,0,8.8,0,13.1,0c0-1.7,0-3.5,0-5.2c-4.3-0.1-9,0.1-13.1-0.1c0.1-1.7-0.1-3.7,0.1-5.2 c4.1,0.2,10.2,0.2,14.5,0c0-1.7,0-3.4,0-5.2c-6.8,0-13.5,0-20.3,0C69.4,45.3,69.4,45.4,69.4,45.6"></path> <path class="st0" d="M148.6,45.3c-1.7,0-3.4,0-5.2,0c-0.2,8.6,0,17.6-0.1,26.3c1.9,0,3.9,0,5.8,0c0.1-4.6-0.1-11.6,0.1-16.5 c2.8,3.7,5.9,8.4,8.9,12.4c0.5,0.7,2.3,3.8,3.1,4c1.5,0.5,3.5-0.4,4.9,0c0-8.8,0-17.5,0-26.3c-1.9,0-3.9,0-5.8,0 c-0.2,5.3,0.1,10.9-0.1,15.9C156.2,56,152.6,50.4,148.6,45.3"></path> <path class="st0" d="M196.7,48c-1.1,1.6-2.4,3-3.6,4.4c-1.9-1.4-4.2-3-7.8-2.6c-6.2,0.6-8.4,9-4.9,13.6c1.2,1.5,3.2,2.8,5.9,2.9 c2.4,0.1,4.1-0.6,5.6-1.6c0.1-1.3,0.1-2.2,0-3.7c-1.9,0-3.8,0-5.7,0c-0.1-1.7-0.1-3.3,0-5.1c3.8,0,7.6,0,11.4,0c0,1.9,0,3.7,0,5.7 c0,1.8,0.5,4.1,0,5.6c-0.3,1.1-3.3,2.5-4.2,2.9c-2.3,1.1-5,1.7-8.3,1.4c-6.9-0.5-12-5.2-12.5-12.4c-0.6-8.5,5.7-14.7,13.7-14.7 C190.7,44.4,194,45.6,196.7,48"></path> <path class="st0" d="M129.6,44.8c1.6,0.6,3.9,0.5,5.6,0c0,20.3,0,14.2,0,34.5c-1.9,0-3.8,0-5.7,0c0-20.2,0-14,0-34.2 C129.5,44.9,129.5,44.8,129.6,44.8"></path> <path class="st0" d="M10.5,45.3c7.2,0,14.4,0,21.5,0c0,1.8,0,3.6,0,5.4c-5.3,0-10.6,0-15.8,0c0,1.8,0,3.5,0,5.3 c4.5,0.2,9.5,0,14.2,0.1c0,1.8,0,3.6,0,5.4c-4.7,0-9.4,0-14.1,0c-0.2,3.2,0,6.8-0.1,10.1c-1.9,0-3.9,0-5.8,0c0-8.7,0-17.3,0-26 C10.4,45.4,10.4,45.3,10.5,45.3"></path> <path class="st0" d="M39.2,45.3c7.1,0,14.2,0,21.3,0c0,1.8,0,3.5,0,5.3c-3.7-0.1-11,0.1-15.5-0.1c-0.2,1.5,0,3.5-0.1,5.2 c4.5,0.2,9.4,0,14,0.1c0,1.7,0,3.5,0,5.2c-4.6,0-9.2,0-13.9,0c-0.2,1.6,0,3.7-0.1,5.5c5.3,0,10.6,0,15.8,0c0,1.7,0,3.5,0,5.2 c-7.2,0-14.4,0-21.6,0c0-8.7,0-17.3,0-26C39,45.4,39,45.3,39.2,45.3"></path> <path class="st0" d="M69.5,45.3c6.8,0,13.5,0,20.3,0c0,1.7,0,3.4,0,5.2c-4.3,0.2-10.4,0.2-14.5,0c-0.2,1.5,0,3.5-0.1,5.2 c4.2,0.2,8.8,0,13.1,0.1c0,1.7,0,3.5,0,5.2c-4.4,0-8.8,0-13.1,0c0,1.8,0,3.6,0,5.4c4.7,0.2,9.9,0,14.8,0.1c0,1.7,0,3.5,0,5.2 c-6.9,0-13.7,0-20.6,0c0-8.7,0-17.3,0-26C69.4,45.4,69.4,45.3,69.5,45.3"></path> <path class="st0" d="M160.2,61.2c0.2-5,0-10.6,0.1-15.9c1.9,0,3.9,0,5.8,0c0,8.8,0,17.5,0,26.3c-1.4-0.4-3.4,0.5-4.9,0 c-0.8-0.2-2.6-3.3-3.1-4c-3-4.1-6.1-8.7-8.9-12.4c-0.2,4.8,0,11.8-0.1,16.5c-1.9,0-3.9,0-5.8,0c0.1-8.7-0.1-17.7,0.1-26.3 c1.7,0,3.5,0,5.2,0C152.6,50.4,156.2,56,160.2,61.2"></path> <path class="st0" d="M115.7,46.8c-4.4-2.2-10.7-1.5-17.4-1.6c-0.1,0-0.1,0.2-0.1,0.3c0,8.7,0,17.3,0,26c6.7-0.2,13,0.7,17.4-1.4 c4.2-2,7.2-5.7,7.2-11.6C122.9,52.6,119.8,48.9,115.7,46.8 M112.5,65.6c-2.1,1-5.3,0.7-8.6,0.7c0-5.1,0-10.3,0-15.4 c0-0.1,0-0.3,0.1-0.3c5.3-0.4,9.5,0.2,11.5,3.4C118.1,58.1,116.2,63.8,112.5,65.6z"></path> </g> </g> <g> <path class="st0" d="M189.1,78.8c-1.8,0-3.7,0-5.5,0c-4.1,8.7-7.9,17.7-11.9,26.5c2,0,4,0,6,0c0.8-2,1.6-4.1,2.6-5.9 c4,0,8.1,0,12.1,0c0.8,2,1.7,3.9,2.5,5.9c2-0.1,4.2,0.1,6-0.1C196.9,96.5,193.1,87.6,189.1,78.8 M182.3,94.2c1.3-3,2.7-5.8,3.9-8.9 c1.5,2.8,2.6,6,4,8.8C187.8,94.4,184.9,94.2,182.3,94.2z"></path> <path class="st0" d="M21.3,78.8c-1.8,0-3.7,0-5.5,0c-4.1,8.7-7.9,17.7-11.9,26.5c2,0,4,0,6,0c0.8-2,1.6-4.1,2.6-5.9 c4,0,8.1,0,12.1,0c0.8,2,1.7,3.9,2.5,5.9c2-0.1,4.2,0.1,6-0.1C29.1,96.5,25.3,87.6,21.3,78.8 M14.5,94.2c1.3-3,2.7-5.8,3.9-8.9 c1.5,2.8,2.6,6,4,8.8C20,94.4,17.1,94.2,14.5,94.2z"></path> <path class="st0" d="M167.5,83.9c-0.6,0.7-1.2,1.1-2,2c-0.4,0.4-1.5,2.1-1.9,2.1c-0.4,0-1.4-1.4-1.8-1.7c-1.3-1-3.2-1.9-5.5-2 c-4.8,0-7.6,3.7-7.7,8.1c0,4.1,2.5,7.8,6.5,8.3c3.7,0.4,6.2-1.4,8.7-3.6c1.1,1.2,2.4,2.4,3.6,3.5c-2.4,2.8-5,4.8-9,5.4 c-8.7,1.2-15.4-4.7-15.9-12.4c-0.6-7.7,5-14,12.4-14.6C161.1,78.5,164.8,80.8,167.5,83.9"></path> <path class="st0" d="M50.2,90.2c2.4-3.5,4.5-7.3,6.9-10.9c2.1,0,4.1,0,6.2,0c0,8.8,0,17.5,0,26.3c-1.9,0-3.7,0-5.6,0 c0-5.6,0-11.3,0-16.9c-2.5,3.2-4.9,7.4-7.6,10.8c-2.7-3.4-4.9-7.3-7.6-10.8c0,5.6,0,11.2,0,16.9c-1.8,0-3.7,0-5.5,0 c0.1-8.7-0.1-17.7,0.1-26.3h6c0.6,0.2,1.5,2,1.9,2.6C46.9,84.6,48.8,87.8,50.2,90.2"></path> <path class="st0" d="M72.1,79.3c6.7,0,13.4,0,20.1,0c0,1.8,0,3.5,0,5.3c-4.8,0-9.5,0-14.3,0c-0.2,1.5,0,3.5-0.1,5.2 c4.2,0.1,8.7-0.1,12.7,0.1c0,1.7,0,3.4,0,5.1c-4,0.2-8.5,0-12.6,0.1c-0.2,1.6,0,3.6-0.1,5.4c4.9,0,9.7,0,14.6,0c0,1.7,0,3.5,0,5.2 c-6.8,0-13.6,0-20.4,0c0-8.7,0-17.3,0-26C72,79.5,72,79.4,72.1,79.3"></path> <rect x="129.5" y="79.1" class="st1" width="5.7" height="26.5"></rect> <path class="st0" d="M116.2,96.2c3.7-1.3,6-4.5,5.5-9.5c-0.9-8.8-11.6-7.4-21.3-7.4c-0.2,8.6,0,17.6-0.1,26.3c2,0,3.9,0,5.9,0 c0.1-2.8-0.1-5.8,0.1-8.4c1.2,0,2.5,0,3.7,0c1.3,1.9,3,4.2,4.3,6.3c0.4,0.6,1,1.9,1.6,2.1c1.9,0.6,4.2-0.4,6.5,0 C120.6,102.6,118.1,99.5,116.2,96.2 M115.4,90.1c-1.2,2.6-5.4,1.9-9.3,2c0.1-2.5-0.1-5.2,0.1-7.5c3.1,0.1,7.1-0.5,8.7,1.2 C115.8,86.7,116.2,88.6,115.4,90.1z"></path> </g> <g> <path class="st1" d="M10.1,13.3h1.4l4.5,6.7l4.5-6.7h1.4v12.2h-1.4v-9.9l-4.5,6.6h-0.1l-4.5-6.5v9.9h-1.3V13.3z"></path> <path class="st1" d="M25.2,13.3h8.8v1.3h-7.5v4.2h6.7V20h-6.7v4.3h7.5v1.3h-8.9V13.3z"></path> <path class="st1" d="M36.9,13.3h1.4l4.5,6.7l4.5-6.7h1.4v12.2h-1.4v-9.9l-4.5,6.6h-0.1l-4.5-6.5v9.9h-1.3V13.3z"></path> <path class="st1" d="M52.1,13.3h5.2c1.4,0,2.5,0.4,3.2,1.1c0.5,0.5,0.8,1.2,0.8,2v0c0,1.6-1,2.4-1.9,2.8c1.4,0.4,2.6,1.3,2.6,3v0 c0,2.1-1.8,3.3-4.4,3.3h-5.4V13.3z M57.1,18.7c1.7,0,2.8-0.8,2.8-2.2v0c0-1.2-1-2-2.7-2h-3.7v4.2H57.1z M57.6,24.3 c1.9,0,3-0.8,3-2.2v0c0-1.3-1.1-2.1-3.2-2.1h-3.9v4.3H57.6z"></path> <path class="st1" d="M64.7,13.3h8.8v1.3h-7.5v4.2h6.7V20h-6.7v4.3h7.5v1.3h-8.9V13.3z"></path> <path class="st1" d="M76.4,13.3h5.3c1.5,0,2.7,0.5,3.5,1.2c0.6,0.6,0.9,1.5,0.9,2.4v0c0,2-1.4,3.2-3.3,3.6l3.8,5h-1.7l-3.5-4.8 h-3.5v4.8h-1.4V13.3z M81.6,19.5c1.8,0,3.1-0.9,3.1-2.5v0c0-1.5-1.2-2.4-3.1-2.4h-3.8v5H81.6z"></path> <path class="st1" d="M93.8,19.4L93.8,19.4c0-3.4,2.5-6.4,6.3-6.4c3.7,0,6.2,2.9,6.2,6.3v0c0,3.4-2.5,6.3-6.3,6.3 C96.3,25.7,93.8,22.8,93.8,19.4z M104.8,19.4L104.8,19.4c0-2.8-2-5.1-4.8-5.1s-4.8,2.2-4.8,5v0c0,2.8,2,5,4.8,5 S104.8,22.2,104.8,19.4z"></path> <path class="st1" d="M109.2,13.3h8.8v1.3h-7.4v4.4h6.6v1.3h-6.6v5.3h-1.4V13.3z"></path> </g> <g> <path class="st1" d="M201.3,48.4L201.3,48.4c0-2.1,1.7-3.8,3.7-3.8c2.1,0,3.7,1.7,3.7,3.7v0c0,2-1.7,3.7-3.8,3.7 C202.9,52.1,201.3,50.4,201.3,48.4z M208.4,48.3L208.4,48.3c0-1.9-1.5-3.4-3.4-3.4c-1.9,0-3.4,1.5-3.4,3.4v0c0,1.9,1.5,3.4,3.4,3.4 C206.9,51.8,208.4,50.2,208.4,48.3z M203.5,46.3h1.7c0.5,0,0.9,0.2,1.1,0.4c0.2,0.2,0.3,0.4,0.3,0.7v0c0,0.6-0.4,1-1,1.1l1.2,1.5 h-0.7l-1.1-1.4h-1v1.4h-0.6V46.3z M205.2,48.2c0.5,0,0.9-0.2,0.9-0.7v0c0-0.4-0.3-0.7-0.9-0.7h-1.1v1.4H205.2z"></path> </g> </svg> 