<?xml version="1.0" encoding="UTF-8"?> <!-- Generator: Adobe Illustrator 23.0.2, SVG Export Plug-In . SVG Version: 6.00 Build 0) --> <svg xmlns="http://www.w3.org/2000/svg" xmlns:xlink="http://www.w3.org/1999/xlink" id="Layer_1" x="0px" y="0px" viewBox="0 0 104.6 76" style="enable-background:new 0 0 104.6 76;" xml:space="preserve"> <style type="text/css"> .st0{fill:#DD9821;} .st1{fill:#FFFFFF;} </style> <path class="st0" d="M102.7,14.9c-0.1,0-0.1,0-0.2,0c-2.2-0.3-4.6-0.6-6.5,0.8c-0.3,1-0.9,1.6-1.7,2c-0.5,0.2-1,0.4-1.5,0.6 c-0.6,0.2-1.2,0.5-1.7,0.8c-0.7,0.1-1.4,0.9-2.1,0.3c1.4-2.1,2-4.3,4.3-6c-1.6,0.9-3.8,1.5-5.4,2.9c-1.4,0.5-2.6,2-2.8,3.7 c-0.1,0.7,0.4,1.8,0,2.6c-0.8,0.6-1.6,1.1-2.4,1.7c-0.3,0.1-0.6,0.2-0.8,0.1c0.1-3.5,1.4-6.8,3.5-9.1c-2.9,1.7-5.5,4.4-7,7.4 c-0.1,1.7,0.1,3.3,0.7,4.8c-0.1,0.1-0.1,0.1-0.2,0.2c-0.8,0.8-1.6,1.7-2.4,2.5c-0.1,0.1-0.3,0.1-0.4,0.2c-0.9-2.5-0.6-5.6-0.3-8.2 c-2.5,2.1-5.5,5.9-4.3,10c0.5,1.1,1.8,0.2,2.3,1.1c0,0.2,0,0.3,0,0.5c-0.8,1.2-1.6,2.4-2.3,3.6c-0.2,0.2-0.4,0.4-0.6,0.6 c-0.4-3.4-3.3-7.1-1.4-10.3c-2.6,3.8-4.8,8.2-3.5,13.2c0.3,1.2,1.8,1,2.7,1.4c0,0.4,0,0.8-0.1,1.1c-0.2,0.4-0.3,0.8-0.4,1.2 c-0.4,0.8-0.9,1.5-1.2,2.3c-0.6-0.6-1.1-1.6-1.8-2.2c-0.3-0.3-1.6-3-1.7-4.3c-0.2-1-0.7-1.4-0.6-2.3c-0.9,1.3-0.9,2.9-1,4.3 c-0.9,2.3-0.4,4.8,0.5,7.2c0.3,1.3,1.7,1.8,3,1.7c0.9,1.7-0.2,3.5-0.6,4.9c-1.7-2-2.9-4-4.1-6.3c-0.1-0.8-0.6-2.4-0.9-2.8 c-0.6,2.6-0.6,5.6-0.8,8.3c0.4,1.7,1.2,3.3,2.3,4.6c0.6,0.9,2,0.7,3,0.9c0.5,1,0.8,2,0.7,3c0,0,0,0,0,0.1c0,0.6-0.2,1.2-0.6,1.8 c-0.5-0.2-0.7-0.3-1.6-0.9c0,0-0.8-0.3-1-0.8c-0.9-0.8-2.5-2.8-3-2.6c0.6,0.2,1.9,4.7,3.2,5.4c0.4,0.4,0.7,0.6,1.3,0.8 c0.7,0.8,1.3,1.2,1.9,1.4c0.3,4,0.8,6.4,0.8,6.5c0.1,0.2,0.3,0.4,0.5,0.4h0.1c0.3-0.1,0.5-0.3,0.4-0.6c0-0.1-0.5-2.4-0.8-6.1 c2.4-0.3,3.6-1,4.6-1.6c1.7-2.4,2.2-2,3-2.9c-0.8,0.1-4.1,2-5,1.8c-0.6,0.1-1.2,0.3-1.6,0.2c-0.6,0.1-0.7,0.3-1.2,0.7 c-0.1-1.7-0.1-3.5,0-5.6c0.2-0.1,0.4-0.2,0.7-0.2c1.1,0.8,2.5,1.2,4.1,0.9c2.9-0.8,6.2-3.4,6.7-6.3c0-0.7-0.5,0-0.8-0.2 c-1.9,1.3-4.4,1.7-6.9,1.5c-1.5-0.2-2.4,0.8-3.6,1.4l0,0c0.2-2.2,0.5-4.5,1-6.8c0.6-0.3,1.3,1.1,2.2,1.1c3.4,1.2,6.4-0.9,8.7-3.1 c0.8-0.4,1.2-1.2,1.8-1.8c-3.7,2.5-7.3-0.9-11.3,0.2c-0.2-0.2-0.2-0.4-0.3-0.7c0.3-1.2,0.7-2.3,1.2-3.5c0.2-0.2,0.4-0.3,0.7-0.2 c1.4,1.5,3.4,2,5.6,1.7c4,0,7.6-2.5,9.7-5.3c-3.2,0.8-7.6,0.8-10.7-0.5c-0.9,0-2.2,0.6-2.9,0c0.9-1.9,1.5-3.7,3.4-5.1 c0.4,0.3,0.5,0.6,0.7,1c2.4,2,5.9,1.7,8.7,0.8c0.7-0.3,1.6-0.7,1.9-1.4c-3.4,0.2-5.7-2.6-8.6-3.8c0.4-0.9,0.7-1.9,1.7-2.5 s1,0.9,1.8,1.4c3.3,1.8,8,1.2,10.8-1.1c-1.9-0.2-3.6,0.2-5.1-0.8c-1.4-1-2.8-1.7-4.4-1.9c0.2-0.5,0.6-1,1.1-1.4 c0.6-0.4,1.2-0.9,1.8-1.3c1.7-0.8,0.9,2,2.5,2.2c4.4,0.9,8.4-0.6,11.7-3.3c-2.4,0.6-5,0.1-7-1.1c-0.8-0.3-2.1,0.1-2.5-0.7 c0.1,0,0.2-0.1,0.2-0.1c1.6-0.9,3.3-1.7,5.1-2.4c0.5,0,0.9,0.1,1.4,0.3c2.6,0.8,4.7-0.8,6.2-2.3c0.5-0.5,1.4-0.7,1.7-1.3 C104,15.1,103.3,15,102.7,14.9z"></path> <path class="st1" d="M8.8,0c0.1,0.5,1,3.1,1.9,5.5c0.1,0.3,1.4,4,1.4,4l2.1-7.7c0,0,0.1-0.5,0.2-0.7c0-0.4-0.6-0.4-1.5-0.5V0.1 l1.7,0.1c0.6,0,1.2-0.1,1.8-0.1v0.5c-0.2,0-0.7,0-1,0.2c-0.2,0.2-0.3,0.7-0.4,1c0,0-0.9,3-1.6,5.7c-0.6,2-1.1,3.8-1.2,4.4h-0.8 c-0.2-0.8-1-3-1.7-4.9L8.1,2.8l-3.3,8.4c0,0-0.2,0.6-0.3,0.8H3.7L1.3,1.5C1.2,1.2,1.1,0.9,0.9,0.8S0.3,0.7,0,0.6V0.1l2,0.1 c0.5,0,1.6-0.1,2.2-0.1v0.5c-0.3,0-0.8,0-1.2,0.2C2.9,0.9,2.9,1.4,2.9,1.5l1.7,7.8l0,0l3.1-8c0.2-0.2,0.4-1,0.5-1.3 C8.2,0,8.6,0,8.8,0"></path> <path class="st1" d="M27.9,6.3c0,3.2-2.4,5.7-5.7,5.7C19,12,17,9.8,17,6.7c0-3.3,2.3-5.4,5.5-5.4C25.7,1.3,27.9,3.2,27.9,6.3 L27.9,6.3z M18.6,6.2c0,2.5,1.2,5.2,4.1,5.2c2.7,0,3.6-2.2,3.6-4.6c0-2.7-1.1-4.8-4-4.8C19.6,2,18.6,3.8,18.6,6.2"></path> <path class="st1" d="M36.7,3.8c0,1.7-1.6,2.6-2.9,2.9l3.4,4.4c0.2,0.3,0.6,0.3,0.9,0.4v0.4c-0.3,0-0.8,0-1.1,0s-0.7,0-1,0 c-0.2-0.3-1.1-1.4-1.7-2.3l-1.7-2.3C32.4,7,32.2,6.9,32,6.6V6.3c0.2,0,0.7,0,1,0c0.9,0,2.2-0.7,2.2-2.1c0-0.9-0.4-1.4-0.9-1.7 c-0.4-0.2-0.9-0.3-1.4-0.3s-0.9,0-1.5,0.2V10c0,0.5,0,0.9,0.2,1.1c0.2,0.2,1.1,0.2,1.3,0.2v0.4h-2.2c-0.5,0-1.6,0-2.1,0v-0.4 c0.5-0.1,1.1,0,1.2-0.2C30,11,30,10.4,30,10V3.2c0-0.5,0-0.8-0.2-0.9c-0.2-0.2-0.6-0.2-1.2-0.2V1.6c0,0,1.1,0,2.6,0 c1.2,0,1.3,0,2.5,0c0.8,0,1.3,0.1,1.8,0.3C36.5,2.4,36.7,3.3,36.7,3.8"></path> <path class="st1" d="M47.8,1.9c-0.1,0.7-0.3,1.5-0.3,2.2H47c0-0.3,0-0.8,0-1c0-0.4-0.5-0.6-1.3-0.9C45.3,2.1,44.7,2,44,2 c-2.6,0-4.2,1.9-4.2,4.5c0,2.9,2,4.8,4.8,4.8c1,0,2.2-0.3,3-0.9l0.1,0.1c-0.1,0.2-0.4,0.7-0.4,0.7C46.4,11.7,45.2,12,44,12 c-3.3,0-5.8-1.9-5.8-5.3c0-3.6,3-5.4,6-5.4C45.5,1.3,46.8,1.6,47.8,1.9"></path> <path class="st1" d="M56.6,1.6c-0.2,0.8-0.2,1.5-0.2,2.2h-0.5c0-0.1,0-0.7,0-0.7c0-0.2,0-0.6-0.1-0.6c0,0-0.6-0.3-2.9-0.3 c-0.8,0-1.2,0.1-1.3,0.1v3.9c0.5,0,1,0,1.7,0c0.9,0,1.4-0.1,1.6-0.2C55,6.1,55,5.9,55,5.7L55.1,5h0.4c0,0.6,0,1.1,0,1.7s0,1,0,1.6 h-0.4c0-0.1-0.1-0.9-0.1-0.9c0-0.2,0-0.3-0.1-0.4c-0.2-0.1-0.7-0.2-1.6-0.2c-0.7,0-1.3,0-1.7,0v4.1c0.5,0.1,0.8,0.1,1.3,0.1 c0.3,0,2.6,0,3-0.2c0.3-0.2,0.4-1.1,0.5-1.6h0.5c-0.1,0.2-0.2,1.5-0.2,1.5v1c-0.2,0-1.5,0.1-2.9,0c-1.1,0-2.4,0-3.4,0 c-0.7,0-1.3,0-1.4,0v-0.4c0.6,0,1-0.1,1.1-0.3s0.1-0.6,0.1-1.2V3.2c0-0.3,0-0.8-0.2-0.9c-0.1-0.1-0.5-0.1-0.7-0.2c0,0-0.5,0-0.6,0 V1.6c0,0,1.1,0,2.5,0c1.1,0,2.4,0,3.4,0C55.8,1.6,56.4,1.6,56.6,1.6"></path> <path class="st1" d="M64.2,2C64.1,2.6,64,3.3,64,4h-0.5c0-0.4-0.1-1-0.1-1c0-0.3-0.3-0.5-0.6-0.7C62.5,2.1,62,2,61.2,2 C59.9,2,59,2.9,59,4.1c0,0.8,0.5,1.2,0.8,1.4c0.4,0.2,1,0.4,1.6,0.4c3.2,0.3,3.4,1.6,3.4,2.4c0,2.4-2.1,3.7-4.4,3.7 c-0.9,0-1.7-0.2-2.5-0.5c0-0.2,0.1-1,0.1-1.2V9.2h0.5c0.1,0.4,0.1,1,0.1,1c0,0.2,0.3,0.5,0.6,0.7c0.5,0.2,1.2,0.4,1.7,0.4 c1.4,0,2.7-0.9,2.7-2.2s-0.9-1.8-2.6-2c-3.1-0.3-3.2-1.7-3.2-2.5c0-2.1,1.7-3.4,3.7-3.4C62.7,1.3,63.3,1.6,64.2,2"></path> <path class="st1" d="M69,3.8c0-0.6,0-1-0.1-1.5h-2.3c-0.4,0-0.6,0.1-0.6,0.5V4h-0.5c0-0.8,0-1.6-0.1-2.4c1.1,0,2.1,0,3.2,0h2.1 c1.1,0,2.1,0,3.2,0c-0.1,0.8-0.1,1.6-0.1,2.4h-0.5l-0.1-1.2c0-0.4-0.1-0.5-0.6-0.5h-2.3c0,0.4-0.1,0.9-0.1,1.5V10c0,0.3,0,0.8,0.1,1 s0.4,0.2,0.7,0.3c0,0,0.6,0,0.7,0v0.4h-2.1c-0.5,0-1.7,0-2.2,0v-0.4c0.2,0,0.5,0,0.6,0c0.3,0,0.5,0,0.7-0.2c0.1-0.2,0.1-0.6,0.1-1.1 V3.8"></path> <path class="st1" d="M82.3,1.6c-0.2,0.8-0.2,1.5-0.2,2.2h-0.5c0-0.1,0-0.7,0-0.7c0-0.2,0-0.6-0.1-0.6c0,0-0.6-0.3-2.9-0.3 c-0.8,0-1.2,0.1-1.3,0.1v3.9c0.5,0,1,0,1.7,0c0.9,0,1.4-0.1,1.6-0.2c0.1-0.1,0.1-0.2,0.1-0.4L80.8,5h0.4c0,0.6,0,1.1,0,1.7 s0,1,0,1.6h-0.4c0-0.1-0.1-0.9-0.1-0.9c0-0.2,0-0.3-0.1-0.4c-0.2,0-0.7-0.1-1.6-0.1c-0.7,0-1.3,0-1.7,0V11c0.5,0.1,0.8,0.1,1.3,0.1 c0.3,0,2.6,0,3-0.2c0.3-0.2,0.4-1.1,0.5-1.6h0.5c-0.1,0.2-0.2,1.5-0.2,1.5v1c-0.2,0-1.5,0.1-2.9,0c-1.1,0-2.4,0-3.4,0 c-0.7,0-1.3,0-1.4,0v-0.4c0.6,0,1-0.1,1.1-0.3s0.1-0.6,0.1-1.2V3.2c0-0.3,0-0.8-0.2-0.9c-0.1-0.1-0.5-0.1-0.7-0.2c0,0-0.5,0-0.6,0 V1.6c0,0,1.1,0,2.5,0c1.1,0,2.4,0,3.4,0C81.5,1.6,82.1,1.6,82.3,1.6"></path> <path class="st1" d="M91.6,3.8c0,1.7-1.6,2.6-2.9,2.9l3.3,4.4c0.2,0.3,0.6,0.3,0.9,0.4v0.4c-0.3,0-0.8,0-1.1,0c-0.3,0-0.7,0-1,0 c-0.2-0.3-1.1-1.4-1.7-2.3l-1.7-2.3C87.2,7,87,6.9,86.8,6.6l0.1-0.2c0.2,0,0.7,0,1,0c0.9,0,2.2-0.7,2.2-2.1c0-0.9-0.4-1.4-0.9-1.7 c-0.4-0.2-0.9-0.3-1.4-0.3s-0.9,0-1.5,0.2V10c0,0.5,0,0.9,0.2,1.1c0.2,0.2,1.1,0.2,1.3,0.2v0.4h-2.2c-0.5,0-1.6,0-2.1,0v-0.4 c0.5-0.1,1.1,0,1.2-0.2c0.2-0.2,0.2-0.8,0.2-1.2V3.2c0-0.5,0-0.8-0.2-0.9c-0.2-0.2-0.6-0.2-1.2-0.2V1.6c0,0,1.1,0,2.6,0 c1.2,0,1.3,0,2.5,0c0.8,0,1.3,0.1,1.8,0.3C91.5,2.4,91.6,3.3,91.6,3.8"></path> <path class="st1" d="M11,17.3c-0.2,0.8-0.3,1.7-0.3,2.6h-0.5c0-0.4,0-1,0-1.2c0-0.5-0.5-0.7-1.5-1.1c-0.4-0.2-1.1-0.3-1.9-0.3 c-3,0-4.8,2.1-4.8,5.2C2,25.8,4.3,28,7.5,28c1.1,0,2.5-0.3,3.5-1l0.2,0.2c-0.1,0.2-0.4,0.8-0.5,0.9C9.6,28.7,8.3,29,7,29 c-3.8,0-6.7-2.2-6.7-6.1c0-4.1,3.4-6.2,6.9-6.2C8.4,16.6,9.9,16.9,11,17.3"></path> <path class="st1" d="M23,23.1c0,3.2-2.4,5.7-5.7,5.7c-3.1,0-5.2-2.3-5.2-5.3c0-3.3,2.3-5.4,5.5-5.4S23,20,23,23.1L23,23.1z M13.7,23 c0,2.5,1.2,5.2,4.1,5.2c2.7,0,3.6-2.2,3.6-4.6c0-2.7-1.1-4.8-4-4.8C14.8,18.8,13.7,20.6,13.7,23"></path> <path class="st1" d="M24.7,19c-0.1-0.1-0.3-0.1-0.5-0.1h-0.7v-0.4c0,0,1.3,0,2.1,0c0.9,0,1.6,0,2.2,0v0.4h-0.7 c-0.4,0-0.5,0.1-0.6,0.2c-0.1,0.2-0.1,0.5-0.1,1v5.2c0,2,1.2,2.6,3,2.6c1.6,0,3.1-0.6,3.1-3v-4.7c0-0.6,0-0.9-0.1-1.1 c-0.1-0.1-0.3-0.2-0.6-0.2h-0.7v-0.4c0.7,0,1.1,0,1.7,0c0.7,0,1.4,0,1.7,0v0.4h-0.7c-0.4,0-0.5,0.1-0.6,0.2 c-0.1,0.2-0.1,0.5-0.1,1.1v4.2c0,3.1-1.2,4.4-4.2,4.4c-2.4,0-3.9-0.7-3.9-3.5v-5.2C25,19.6,24.9,19.1,24.7,19"></path> <path class="st1" d="M36.4,20.1c0-0.5,0-0.9-0.2-1c-0.2-0.2-0.6-0.2-1.2-0.2v-0.4h1.4c0.3,0,0.8,0,1.1,0l7,8.7l0,0V20 c0-0.5-0.1-0.8-0.2-0.9c-0.1-0.2-0.5-0.2-1.2-0.2v-0.4h1.7c0.3,0,1.4,0,1.8,0v0.4c-0.5,0-1.1,0-1.2,0.2c-0.1,0.2-0.1,0.7-0.1,0.9 v8.3c0,0.2,0,0.4,0,0.5L44,28.6c0,0-6.3-7.8-6.9-8.6c-0.1-0.1,0,0,0,0v7.1c0,0.5,0.1,0.7,0.2,0.9c0.2,0.2,0.7,0.1,1.2,0.2v0.4h-1.8 c-0.4,0-1.2,0-1.6,0v-0.4c0.6-0.1,1,0,1.2-0.2c0.1-0.1,0.2-0.4,0.2-0.9v-7"></path> <path class="st1" d="M50.8,20.6c0-0.6,0-1-0.1-1.5h-2.3c-0.4,0-0.6,0.1-0.6,0.5l-0.1,1.2h-0.5c0-0.8,0-1.6-0.1-2.4 c1.1,0,2.1,0,3.2,0h2.1c1.1,0,2.1,0,3.2,0c-0.1,0.8-0.1,1.6-0.1,2.4H55l-0.1-1.2c0-0.4-0.1-0.5-0.6-0.5H52c0,0.4-0.1,0.9-0.1,1.5 v6.3c0,0.3,0,0.8,0.1,1s0.4,0.2,0.7,0.2c0,0,0.6,0,0.7,0v0.4h-2.1c-0.5,0-1.7,0-2.2,0v-0.4c0.2,0,0.5,0,0.6,0c0.3,0,0.5,0,0.7-0.2 c0.1-0.2,0.1-0.6,0.1-1.1v-6.2"></path> <path class="st1" d="M60.7,22.5c0.2,0.3,0.4,0.7,0.6,1.1l1.5-2.4c0.7-1,1.4-2.5,1.6-2.8h1.2c0,0.1,0,0.2,0,0.2s-2.6,3-3.7,5.3 c-0.1,0.2-0.2,0.6-0.2,0.9v2.3c0,0.4,0,0.7,0.1,0.8c0.1,0.1,0.3,0.2,0.5,0.2c0,0,0.5,0,0.8,0.1v0.4H61c-0.5,0-1.7,0-2.2,0v-0.4 c0.3,0,0.5,0,0.7,0s0.5,0,0.6-0.2c0.1-0.1,0.2-0.5,0.2-0.9v-2.3c0-0.3-0.1-0.6-0.1-0.6L58.5,21c-0.3-0.6-1.2-1.9-2.1-2 c0,0-0.2,0-0.3,0v-0.4c0.7-0.1,1.7-0.4,1.8-0.4c0,0,0.1,0,0.4,0.3c0.2,0.2,0.7,0.9,0.7,0.9L60.7,22.5"></path> <path class="st1" d="M8.9,33.8c-0.2,0.9-0.3,1.7-0.3,2.6H8c0-0.1,0-1.1,0-1.1c0-0.4,0-0.4-0.2-0.4c-0.3-0.1-1.2-0.4-2.8-0.4 c-0.5,0-1,0-1.5,0.1v4.5c0,0,1,0.1,1.8,0.1c0.5,0,1.6,0,1.9-0.2c0.1-0.1,0.2-0.5,0.2-0.8c0,0,0.1-0.5,0.1-0.6H8c0,0-0.1,0.8-0.1,1.7 s0,1.9,0.1,2.1H7.4c0-0.1-0.1-0.8-0.1-0.8c0-0.2,0-0.6-0.2-0.7c-0.4-0.2-1.4-0.2-1.9-0.2c-0.9,0-1.7,0-1.8,0.1v3.5 c0,0.5,0,1.1,0.2,1.3s0.5,0.2,0.7,0.2c0,0,0.4,0,0.8,0.1v0.5c0,0-1.2,0-2.4,0c-1.1,0-2.2,0-2.5,0v-0.5c0.4,0,0.7,0,0.7-0.1 c0.6,0,0.7-0.1,0.9-0.3c0.1-0.2,0.1-0.7,0.1-1.2v-7.8c0-0.3,0-0.9-0.2-1c-0.2-0.2-0.5-0.2-0.8-0.2c0,0-0.7,0-0.7-0.1v-0.5 c0,0,1.5,0,2.8,0c1.2,0,2.5-0.1,3.7,0C8,33.7,8.7,33.8,8.9,33.8"></path> <path class="st1" d="M20.4,39.9c0,3.2-2.4,5.7-5.7,5.7c-3.1,0-5.2-2.3-5.2-5.3c0-3.3,2.3-5.4,5.5-5.4C18.3,34.9,20.4,36.8,20.4,39.9 L20.4,39.9z M11.1,39.8c0,2.5,1.2,5.2,4.1,5.2c2.7,0,3.6-2.2,3.6-4.6c0-2.7-1.1-4.8-4-4.8C12.2,35.6,11.1,37.4,11.1,39.8"></path> <path class="st1" d="M32,39.9c0,3.2-2.4,5.7-5.7,5.7c-3.1,0-5.2-2.3-5.2-5.3c0-3.3,2.3-5.4,5.5-5.4S32,36.8,32,39.9L32,39.9z M22.7,39.8c0,2.5,1.2,5.2,4.1,5.2c2.7,0,3.6-2.2,3.6-4.6c0-2.7-1.1-4.8-4-4.8C23.7,35.6,22.7,37.4,22.7,39.8"></path> <path class="st1" d="M43.3,39.7c0,2.9-1.9,4.7-3.2,5.2c-1.1,0.4-1.9,0.5-3.1,0.5c-0.2,0-1.5,0-1.9,0c-1.8,0-2,0-2,0v-0.3 c0.2-0.1,0.5-0.3,0.5-0.3c0.2-0.1,0.4-0.5,0.4-0.8v-7.2c0-0.7-0.1-0.8-0.1-0.9c-0.1-0.3-1-0.2-1.2-0.3v-0.4c0,0,1.1,0,2.7,0 c1,0,1.8,0,3,0C41.3,35.2,43.3,36.9,43.3,39.7L43.3,39.7z M35.4,35.9v8.7c0.3,0.1,1.1,0.1,1.6,0.1c1.3,0,1.9-0.2,2.5-0.5 c2-0.9,2.3-3,2.3-4.2c0-3.3-1.7-4.3-4.7-4.3C36.5,35.8,35.9,35.8,35.4,35.9"></path> <path class="st1" d="M1.8,52.5c0-0.6,0-1-0.2-1.2c-0.1-0.2-0.3-0.2-0.7-0.3H0.3v-0.5c0.9,0,1.9,0.1,2.4,0.1c1,0,1.9,0,3.2-0.1 c1.6,0,3,0.5,3,2.3c0,0.9-0.4,1.5-1,1.9c-0.7,0.6-1.3,0.7-1.8,0.8l0,0c1.1,0,3.4,0.4,3.4,2.8c0,1.2-0.7,2.6-2.1,3.3 c-0.7,0.4-1.6,0.6-2.8,0.6c-0.9,0-1.4-0.1-2-0.1c-0.7,0-1.6,0.1-1.7,0.1v-0.4l0.4-0.2c0.4-0.2,0.4-1.2,0.4-1.2L1.8,52.5L1.8,52.5z M3.4,56.1v5.3c0.4,0.1,0.8,0.1,1.3,0.1c2,0,3.1-1.1,3.1-2.9c0-1.8-1.2-2.6-3.3-2.6C4,56,3.6,56.1,3.4,56.1L3.4,56.1z M3.4,51.3v4.1 c0.2,0,1,0,1,0c1.5,0,2.9-0.5,2.9-2.3c0-1.6-1.1-2-2.5-2C4.3,51.2,3.8,51.2,3.4,51.3"></path> <path class="st1" d="M16.1,51.9l3.8,8.9c0,0,0.4,0.7,0.5,0.8c0.2,0.1,0.3,0.1,0.7,0.1v0.4h-1.9c-0.4,0-1.6,0-2,0v-0.4 c0.4,0,1.3,0,1.3-0.3c0-0.1,0-0.3-0.1-0.3l-0.9-2.3h-4.2c-0.5,1.1-0.8,2.1-0.8,2.1c0,0.1-0.1,0.4-0.1,0.5c0,0.2,0.2,0.3,0.5,0.4 l0.7,0.1v0.4H12c-0.4,0-1.4,0-1.8,0v-0.4c0.1,0,0.4,0,0.4,0c0.3,0,0.7-0.2,0.9-0.8l2.6-5.9c0.1-0.2,1.3-3,1.4-3.2L16.1,51.9 L16.1,51.9z M13.7,58.2h3.7l-1.9-4.4C14.9,55.3,14.3,56.7,13.7,58.2"></path> <path class="st1" d="M23.2,53.7c0-0.5,0-0.9-0.2-1c-0.2-0.2-0.6-0.2-1.2-0.2V52h1.4c0.3,0,0.8,0,1.1,0l7,8.7l0,0v-7.1 c0-0.5-0.1-0.8-0.2-0.9c-0.1-0.2-0.5-0.2-1.2-0.2V52h1.7c0.3,0,1.4,0,1.8,0v0.4c-0.5,0-1.1,0-1.2,0.3c-0.1,0.2-0.1,0.8-0.1,0.9v8.3 c0,0.2,0,0.4,0,0.5l-1.3-0.2c0,0-6.3-7.8-6.9-8.6c-0.1-0.1,0,0,0,0v7.1c0,0.5,0.1,0.7,0.2,0.9c0.2,0.2,0.7,0.1,1.2,0.2v0.4h-1.8 c-0.4,0-1.2,0-1.6,0v-0.4c0.6-0.1,1,0,1.2-0.2c0.1-0.1,0.2-0.4,0.2-0.9v-7"></path> <path class="st1" d="M36.9,60.5c0,0.5,0,0.9,0.2,1c0.1,0.1,0.2,0.2,0.6,0.2h0.7v0.4c-0.5,0-1,0-2.1,0c-1,0-1.5,0-2.2,0v-0.4h0.7 c0.3,0,0.4-0.1,0.5-0.1c0.1-0.1,0.2-0.4,0.2-1.1v-6.8c0-0.5,0-0.9-0.1-1s-0.3-0.2-0.6-0.2h-0.7V52c0,0,1,0,2,0s1.8,0,2.3,0v0.4h-0.7 c-0.5,0-0.6,0.1-0.6,0.2c-0.1,0.2-0.1,0.6-0.1,1v3.3l4.2-4.1c0.1-0.2,0.3-0.4,0.3-0.5s0-0.4,0-0.4c0.6,0,1.3,0,1.3,0 c0.3,0,0.9,0,1.2,0v0.4h-0.7c-0.5,0-0.9,0.4-1.1,0.6l-3.9,3.5l4.8,4.6c0.2,0.2,0.6,0.6,0.9,0.6h0.3V62c-0.5,0-0.6,0-1,0 c-0.5,0-0.6,0-1.1,0l-5.1-4.9L37,57.2L36.9,60.5"></path> </svg> 