<?xml version="1.0" encoding="UTF-8"?> <!-- Generator: Adobe Illustrator 23.0.2, SVG Export Plug-In . SVG Version: 6.00 Build 0) --> <svg xmlns="http://www.w3.org/2000/svg" xmlns:xlink="http://www.w3.org/1999/xlink" id="Layer_1" x="0px" y="0px" viewBox="0 0 512 512" style="enable-background:new 0 0 512 512;" xml:space="preserve"> <style type="text/css"> .st0{fill:#FEDB41;} .st1{fill:#FE9922;} .st2{fill:#FCBF27;} .st3{fill:#FE8722;} .st4{fill:#FEDBAB;} .st5{fill:#FEC478;} .st6{fill:#896648;} .st7{fill:#E70039;} .st8{fill:#D00014;} .st9{fill:#73543A;} </style> <path class="st0" d="M256,223.2c-59,0-106.9-48-106.9-106.9c0-59,48-106.9,106.9-106.9s106.9,48,106.9,106.9 C362.9,175.3,315,223.2,256,223.2z"></path> <path class="st1" d="M276.1,102c-1.6-1-3.3-1.9-5.1-2.8c-1.6-0.8-3.3-1.5-5.3-2.2c-2-0.7-3.9-1.2-5.9-1.5v9.6c0.6,0.1,1.3,0.3,2,0.6 c0.7,0.2,1.5,0.5,2.2,0.7c3.5,1.1,6.6,2.2,9.4,3.5c2.8,1.3,5.2,2.8,7.2,4.5c2,1.7,3.5,3.8,4.6,6.3c1.1,2.5,1.6,5.5,1.6,9 c0,4.2-0.7,7.7-2.2,10.7c-1.5,2.9-3.4,5.3-5.7,7.2c-2.4,1.9-5.1,3.3-8.1,4.2c-3.1,1-6.2,1.5-9.5,1.8v12.8h-8.5v-13.1 c-4.9-0.4-9.8-1.4-14.6-2.9c-4.8-1.5-9.2-3.4-13-5.6l8.9-18.1c1.9,1.2,4,2.3,6.2,3.4c1.8,0.9,4,1.8,6.4,2.7c2.4,0.9,5,1.5,7.5,1.9 v-9.3c-2.2-0.6-4.4-1.2-6.6-2c-3.3-1.1-6.2-2.4-8.6-3.7c-2.4-1.3-4.4-2.8-6-4.5c-1.6-1.7-2.7-3.6-3.5-5.7s-1.1-4.6-1.1-7.3 c0-3.8,0.6-7.2,1.9-10.1c1.3-2.9,3-5.5,5.2-7.6s4.8-3.8,7.7-5.1c2.9-1.3,6.1-2.1,9.4-2.4V66.2h8.5v10.8c2.3,0.3,4.6,0.7,6.8,1.3 c2.2,0.6,4.3,1.2,6.3,2c2,0.7,3.9,1.5,5.7,2.3c1.8,0.8,3.4,1.6,4.9,2.3L276.1,102z M250,98.8c0,1.1,0.4,1.9,1.1,2.6 c0.7,0.7,1.8,1.3,3.2,1.9v-8.1C251.4,95.6,250,96.8,250,98.8z M264.5,131.7c0-1-0.4-1.9-1.3-2.6c-0.8-0.7-2-1.4-3.4-2v7.9 c1.7-0.1,2.9-0.5,3.6-1.1C264.1,133.4,264.5,132.6,264.5,131.7z"></path> <path class="st2" d="M362.9,116.3c0-59-48-106.9-106.9-106.9v213.8C315,223.2,362.9,175.3,362.9,116.3z"></path> <path class="st3" d="M280.6,114.4c-2-1.7-4.4-3.2-7.2-4.5c-2.8-1.3-5.9-2.4-9.4-3.5c-0.8-0.2-1.5-0.4-2.2-0.7 c-0.7-0.2-1.4-0.4-2-0.6v-9.5c2,0.4,4,0.9,5.9,1.5c2,0.7,3.7,1.4,5.3,2.2c1.8,0.8,3.5,1.8,5.1,2.8l8.9-17.1 c-1.5-0.7-3.1-1.5-4.9-2.3c-1.8-0.8-3.7-1.6-5.7-2.3c-2-0.7-4.1-1.4-6.3-2c-2.2-0.6-4.5-1-6.8-1.3V66.2H256v100.2h5.3v-12.8 c3.3-0.2,6.4-0.8,9.5-1.8c3.1-1,5.8-2.4,8.1-4.2s4.3-4.3,5.7-7.2c1.5-2.9,2.2-6.5,2.2-10.7c0-3.5-0.5-6.5-1.6-9 C284.2,118.2,282.6,116.1,280.6,114.4z M263.4,133.9c-0.7,0.6-1.9,0.9-3.6,1.1v-7.9c1.4,0.6,2.6,1.2,3.4,2c0.9,0.7,1.3,1.6,1.3,2.6 C264.5,132.6,264.1,133.4,263.4,133.9z"></path> <path class="st4" d="M419.8,502.6H92.2V252.1h327.5V502.6z"></path> <path class="st5" d="M256,252.1h163.8v250.4H256V252.1z"></path> <path class="st6" d="M443.8,281H68.2v-86.7h375.7V281z"></path> <path class="st7" d="M256,446.4l-62.4-62.4c-16.9-16.9-16.9-44.4,0-61.3c16.9-16.9,44.4-16.9,61.3,0l1.1,1.1l1.1-1.1 c16.9-16.9,44.4-16.9,61.3,0s16.9,44.4,0,61.3L256,446.4z"></path> <path class="st8" d="M318.4,383.9c16.9-16.9,16.9-44.4,0-61.3s-44.4-16.9-61.3,0l-1.1,1.1v122.6L318.4,383.9z"></path> <path class="st9" d="M256,194.3h187.8V281H256V194.3z"></path> </svg> 