<?xml version="1.0" encoding="UTF-8"?> <svg xmlns="http://www.w3.org/2000/svg" height="512pt" viewBox="-22 0 512 512.003" width="512pt"><path d="m302.683594 297.664062c-6.644532-6.644531-6.644532-17.457031 0-24.101562.292968-.289062.601562-.558594.910156-.824219h-98.160156v234.109375c0 2.835938 2.316406 5.152344 5.148437 5.152344h89.84375c2.832031 0 5.148438-2.316406 5.148438-5.152344v-206.289062zm0 0" fill="#5dc647"></path><path d="m217.035156 201.550781v31.398438h79.863282v-31.398438h11.011718c6.203125 0 11.277344-5.074219 11.277344-11.277343l-.003906-163.757813c0-6.203125-5.070313-11.273437-11.273438-11.273437h-4.953125c-6.203125-.003907-11.277343 5.074218-11.277343 11.277343v73.5625h-5.96875v-88.808593c0-6.199219-5.074219-11.273438-11.277344-11.273438h-4.949219c-6.203125 0-11.277344 5.074219-11.273437 11.277344l-.003907 88.804687h-5.964843v-88.804687c0-6.203125-5.074219-11.277344-11.277344-11.277344h-4.957032c-6.203124 0-11.277343 5.074219-11.277343 11.277344l.003906 88.804687h-5.96875v-78.347656c0-6.203125-5.074219-11.277344-11.277344-11.277344h-4.949219c-6.207031 0-11.277343 5.074219-11.277343 11.277344v102.132813l-13.144531-13.144532c-7.046876-7.042968-18.46875-7.042968-25.515626.003906-7.046874 7.042969-7.046874 18.46875 0 25.511719l38.65625 38.660157v15.378906c0 6.203125 5.078126 11.273437 11.28125 11.277344h14.496094zm0 0" fill="#ffd5b3"></path><path d="m249.539062 196.015625c-4.144531 0-7.5-3.359375-7.5-7.5 0-16.308594-5.28125-29.449219-15.695312-39.0625-7.589844-7.007813-15.152344-9.464844-15.226562-9.488281-3.960938-1.21875-6.183594-5.414063-4.964844-9.371094 1.21875-3.960938 5.421875-6.179688 9.375-4.964844 14.355468 4.417969 41.511718 23.246094 41.511718 62.886719 0 4.140625-3.359374 7.5-7.5 7.5zm0 0" fill="#ffb98a"></path><path d="m302.683594 273.5625c3.21875-3.21875 7.5-4.992188 12.050781-4.992188.847656 0 1.679687.082032 2.503906.203126.003907-.0625.019531-.125.019531-.1875v-31.488282c0-2.832031-2.316406-5.148437-5.148437-5.148437h-113.210937c-2.832032 0-5.148438 2.316406-5.148438 5.148437v31.488282c0 2.832031 2.316406 5.152343 5.148438 5.152343h103.628906c.054687-.058593.101562-.121093.15625-.175781zm0 0" fill="#368c0e"></path><path d="m227.179688 260.34375h-13c-4.144532 0-7.5-3.359375-7.5-7.5 0-4.144531 3.355468-7.5 7.5-7.5h13c4.144531 0 7.5 3.355469 7.5 7.5 0 4.140625-3.355469 7.5-7.5 7.5zm0 0" fill="#5dc647"></path><path d="m468.5625 188.648438c0-6.203126-5.074219-11.277344-11.277344-11.277344h-4.953125c-6.203125 0-11.277343 5.074218-11.277343 11.277344v73.5625h-5.964844v-88.804688c0-6.203125-5.078125-11.277344-11.277344-11.277344h-4.953125c-6.203125.003906-11.277344 5.074219-11.273437 11.277344l-.003907 88.804688-5.964843.003906v-88.804688c0-6.203125-5.074219-11.277344-11.277344-11.277344h-4.957032c-6.199218 0-11.273437 5.070313-11.273437 11.277344l.003906 88.804688-5.96875-.003906v-78.347657c0-6.199219-5.074219-11.273437-11.277343-11.273437h-4.953126c-6.203124 0-11.277343 5.074218-11.277343 11.277344v102.132812l-13.144531-13.144531c-7.042969-7.042969-18.46875-7.042969-25.515626 0-7.042968 7.046875-7.042968 18.472656 0 25.515625l38.660157 38.660156v15.375c0 6.203125 5.074219 11.277344 11.277343 11.277344h14.5v143.671875c0 2.554687 2.089844 4.644531 4.640626 4.644531h70.578124c2.554688 0 4.644532-2.089844 4.644532-4.644531v-143.671875h11.011718c6.203126 0 11.277344-5.074219 11.277344-11.277344zm0 0" fill="#c6a07d"></path><path d="m371.054688 511c-2.007813 0-3.644532-1.632812-3.644532-3.644531v-143.671875c0-.550782-.445312-1-1-1h-14.496094c-5.667968 0-10.277343-4.613282-10.28125-10.277344v-15.375c0-.265625-.101562-.519531-.292968-.707031l-38.65625-38.660157c-6.644532-6.644531-6.644532-17.457031 0-24.101562 3.21875-3.21875 7.5-4.992188 12.050781-4.992188 4.554687 0 8.832031 1.773438 12.050781 4.992188l13.140625 13.144531c.191407.191407.449219.292969.707031.292969.128907 0 .261719-.027344.382813-.078125.375-.152344.617187-.519531.617187-.921875v-102.136719c0-2.730469 1.074219-5.308593 3.023438-7.253906 1.945312-1.949219 4.523438-3.019531 7.257812-3.019531h4.953126c5.667968 0 10.273437 4.609375 10.273437 10.273437v78.347657c0 .550781.449219 1 1 1h5.96875c.265625 0 .519531-.105469.707031-.292969s.292969-.441407.292969-.707031v-88.804688c0-5.664062 4.605469-10.273438 10.273437-10.273438h4.957032c5.664062 0 10.273437 4.609376 10.277344 10.277344l-.003907 88.804688c0 .261718.105469.519531.292969.707031.1875.183594.441406.292969.707031.292969l5.96875-.003906c.554688 0 1-.445313 1-1l.003907-88.804688c-.003907-2.730469 1.070312-5.308594 3.015624-7.257812 1.949219-1.945313 4.523438-3.019532 7.257813-3.019532h4.953125c2.730469 0 5.308594 1.074219 7.257812 3.019532 1.945313 1.949218 3.019532 4.523437 3.019532 7.257812v88.804688c0 .265624.105468.519531.292968.707031s.441407.292969.707032.292969h5.964844c.554687 0 1-.445313 1-1v-73.5625c0-5.667969 4.613281-10.277344 10.277343-10.277344h4.957031c5.664063 0 10.273438 4.609375 10.273438 10.277344l.003906 163.757812c0 2.730469-1.074218 5.308594-3.023437 7.253906-1.945313 1.949219-4.519531 3.023438-7.253907 3.023438h-11.011718c-.554688 0-1 .445312-1 1v143.671875c0 2.007812-1.636719 3.644531-3.644532 3.644531zm0 0" fill="#c6a07d"></path><path d="m398.914062 358.148438c-4.140624 0-7.5-3.359376-7.5-7.5 0-38.21875-29.699218-48.160157-30.960937-48.5625-3.929687-1.257813-6.128906-5.457032-4.894531-9.394532 1.238281-3.9375 5.398437-6.140625 9.34375-4.929687 14.355468 4.414062 41.511718 23.246093 41.511718 62.886719 0 4.140624-3.359374 7.5-7.5 7.5zm0 0" fill="#aa8465"></path><path d="m171.871094 268.488281c0-6.203125-5.074219-11.277343-11.277344-11.277343h-4.949219c-6.203125 0-11.277343 5.074218-11.277343 11.277343v73.5625h-5.96875v-88.804687c0-6.203125-5.074219-11.277344-11.277344-11.273438h-4.953125c-6.203125 0-11.277344 5.074219-11.273438 11.277344l-.003906 88.804688h-5.964844v-88.804688c0-6.203125-5.074219-11.277344-11.273437-11.277344h-4.957032c-6.203124 0-11.277343 5.074219-11.277343 11.277344l.003906 88.804688h-5.96875v-78.347657c0-6.203125-5.074219-11.277343-11.273437-11.277343h-4.957032c-6.199218 0-11.273437 5.074218-11.273437 11.277343v102.132813l-13.144531-13.140625c-7.046876-7.046875-18.472657-7.046875-25.519532 0-7.042968 7.042969-7.042968 18.46875 0 25.515625l38.660156 38.65625v15.378906c0 6.199219 5.078126 11.273438 11.277344 11.277344h14.5v63.832031c0 2.554687 2.089844 4.644531 4.640625 4.644531h70.578125c2.554688 0 4.644532-2.089844 4.644532-4.644531v-63.835937h11.011718c6.203125 0 11.277344-5.074219 11.277344-11.277344zm0 0" fill="#775436"></path><path d="m102.222656 437.984375c-4.140625 0-7.5-3.355469-7.5-7.5 0-16.304687-5.277344-29.449219-15.695312-39.0625-7.589844-7.007813-15.152344-9.464844-15.226563-9.488281-3.960937-1.214844-6.179687-5.414063-4.960937-9.371094 1.214844-3.960938 5.414062-6.179688 9.371094-4.964844 14.359374 4.417969 41.511718 23.246094 41.511718 62.886719 0 4.144531-3.355468 7.5-7.5 7.5zm0 0" fill="#634229"></path></svg> 