<?xml version="1.0" encoding="UTF-8"?> <!-- Generator: Adobe Illustrator 23.0.2, SVG Export Plug-In . SVG Version: 6.00 Build 0) --> <svg xmlns="http://www.w3.org/2000/svg" xmlns:xlink="http://www.w3.org/1999/xlink" id="Capa_1" x="0px" y="0px" viewBox="0 0 100 100" style="enable-background:new 0 0 100 100;" xml:space="preserve"> <style type="text/css"> .st0{fill:url(#SVGID_1_);} .st1{fill:url(#SVGID_2_);} .st2{fill:url(#SVGID_3_);} .st3{fill:url(#SVGID_4_);} .st4{fill:url(#SVGID_5_);} .st5{fill:url(#SVGID_6_);} .st6{fill:url(#SVGID_7_);} .st7{fill:url(#SVGID_8_);} .st8{fill:url(#SVGID_9_);} .st9{fill:url(#SVGID_10_);} .st10{fill:url(#SVGID_11_);} .st11{fill:url(#SVGID_12_);} .st12{fill:url(#SVGID_13_);} .st13{fill:url(#SVGID_14_);} .st14{fill:url(#SVGID_15_);} .st15{fill:url(#SVGID_16_);} .st16{fill:url(#SVGID_17_);} .st17{fill:url(#SVGID_18_);} .st18{fill:url(#SVGID_19_);} .st19{fill:url(#SVGID_20_);} .st20{fill:url(#SVGID_21_);} .st21{fill:url(#SVGID_22_);} .st22{fill:url(#SVGID_23_);} .st23{fill:url(#SVGID_24_);} .st24{fill:url(#SVGID_25_);} .st25{fill:url(#SVGID_26_);} .st26{fill:#981332;} .st27{fill:#F43453;} .st28{fill:url(#SVGID_27_);} .st29{fill:url(#SVGID_28_);} .st30{fill:url(#SVGID_29_);} .st31{fill:url(#SVGID_30_);} .st32{fill:url(#SVGID_31_);} .st33{fill:url(#SVGID_32_);} .st34{fill:url(#SVGID_33_);} .st35{fill:url(#SVGID_34_);} .st36{fill:url(#SVGID_35_);} .st37{fill:url(#SVGID_36_);} .st38{fill:url(#SVGID_37_);} .st39{fill:url(#SVGID_38_);} .st40{fill:url(#SVGID_39_);} .st41{fill:url(#SVGID_40_);} .st42{fill:url(#SVGID_41_);} .st43{fill:url(#SVGID_42_);} .st44{fill:url(#SVGID_43_);} .st45{fill:url(#SVGID_44_);} .st46{fill:url(#SVGID_45_);} .st47{fill:url(#SVGID_46_);} .st48{fill:url(#SVGID_47_);} </style> <g> <g> <g> <linearGradient id="SVGID_1_" gradientUnits="userSpaceOnUse" x1="50.6658" y1="141.617" x2="-11.3927" y2="-49.3796"> <stop offset="0" style="stop-color:#981332"></stop> <stop offset="1" style="stop-color:#F43453"></stop> </linearGradient> <path class="st0" d="M26.4,37.3L3.3,14.3c-0.8-0.8-2-0.8-2.8,0c-0.8,0.8-0.8,2,0,2.8l22.5,22.5l0,2.7c0,1.1,0.9,2,2,2 c0,0,0,0,0,0c1.1,0,2-0.9,2-2l0-3.5C27,38.2,26.8,37.7,26.4,37.3z"></path> </g> </g> <g> <g> <linearGradient id="SVGID_2_" gradientUnits="userSpaceOnUse" x1="60.8147" y1="108.6853" x2="5.7515" y2="-60.7817"> <stop offset="0" style="stop-color:#981332"></stop> <stop offset="1" style="stop-color:#F43453"></stop> </linearGradient> <path class="st1" d="M44.1,23C44.1,23,44.1,23,44.1,23l-4.6,0L17,0.6c-0.8-0.8-2-0.8-2.8,0c-0.8,0.8-0.8,2,0,2.8l23.1,23.1 c0.4,0.4,0.9,0.6,1.4,0.6c0,0,0,0,0,0l5.4,0c1.1,0,2-0.9,2-2C46.1,23.9,45.2,23,44.1,23z"></path> </g> </g> <g> <g> <linearGradient id="SVGID_3_" gradientUnits="userSpaceOnUse" x1="107.7243" y1="73.8689" x2="43.7924" y2="-122.8932"> <stop offset="0" style="stop-color:#981332"></stop> <stop offset="1" style="stop-color:#F43453"></stop> </linearGradient> <path class="st2" d="M85.7,0.6C85.4,0.2,84.9,0,84.4,0s-1,0.2-1.4,0.6S82.4,1.4,82.4,2s0.2,1,0.6,1.4c0.4,0.4,0.9,0.6,1.4,0.6 s1-0.2,1.4-0.6C86.1,3,86.3,2.5,86.3,2S86.1,0.9,85.7,0.6z"></path> </g> </g> <g> <g> <linearGradient id="SVGID_4_" gradientUnits="userSpaceOnUse" x1="81.3947" y1="81.9771" x2="32.8814" y2="-67.3315"> <stop offset="0" style="stop-color:#981332"></stop> <stop offset="1" style="stop-color:#F43453"></stop> </linearGradient> <path class="st3" d="M80,6.3c-0.8-0.8-2-0.8-2.8,0L60.5,23.1l-2.7,0c0,0,0,0,0,0c-5.2,0-10,2-13.7,5.7l-1.8,1.8 c-0.8,0.8-0.8,2,0,2.8c0.4,0.4,0.9,0.6,1.4,0.6c0.5,0,1-0.2,1.4-0.6l1.8-1.8c2.9-2.9,6.8-4.5,10.9-4.5c0,0,0,0,0,0l3.5,0 c0,0,0,0,0,0c0.5,0,1-0.2,1.4-0.6L80,9.1C80.8,8.3,80.8,7.1,80,6.3z"></path> </g> </g> <g> <g> <linearGradient id="SVGID_5_" gradientUnits="userSpaceOnUse" x1="124.8711" y1="147.8993" x2="-5.8348" y2="-254.3723"> <stop offset="0" style="stop-color:#981332"></stop> <stop offset="1" style="stop-color:#F43453"></stop> </linearGradient> <path class="st4" d="M99.4,14.3c-0.8-0.8-2-0.8-2.8,0L73.6,37.3c-0.4,0.4-0.6,0.9-0.6,1.4l0,5.4c0,1.1,0.9,2,2,2c0,0,0,0,0,0 c1.1,0,2-0.9,2-2l0-4.6L99.4,17C100.2,16.3,100.2,15,99.4,14.3z"></path> </g> </g> <g> <g> <linearGradient id="SVGID_6_" gradientUnits="userSpaceOnUse" x1="97.7125" y1="107.276" x2="32.1445" y2="-94.5215"> <stop offset="0" style="stop-color:#981332"></stop> <stop offset="1" style="stop-color:#F43453"></stop> </linearGradient> <path class="st5" d="M99.4,83L76.9,60.5l0-2.7c0-2.6-0.5-5.1-1.5-7.4c-0.4-1-1.6-1.5-2.6-1.1c-1,0.4-1.5,1.6-1.1,2.6 c0.8,1.9,1.2,3.9,1.2,5.9l0,3.5c0,0.5,0.2,1,0.6,1.4l23.1,23.1c0.4,0.4,0.9,0.6,1.4,0.6s1-0.2,1.4-0.6 C100.2,85,100.2,83.7,99.4,83z"></path> </g> </g> <g> <g> <linearGradient id="SVGID_7_" gradientUnits="userSpaceOnUse" x1="81.8207" y1="122.5323" x2="26.7575" y2="-46.935"> <stop offset="0" style="stop-color:#981332"></stop> <stop offset="1" style="stop-color:#F43453"></stop> </linearGradient> <path class="st6" d="M85.7,96.7L62.7,73.6c-0.4-0.4-0.9-0.6-1.4-0.6c0,0,0,0,0,0l-5.4,0c-1.1,0-2,0.9-2,2c0,1.1,0.9,2,2,2 c0,0,0,0,0,0l4.6,0L83,99.4c0.4,0.4,0.9,0.6,1.4,0.6c0.5,0,1-0.2,1.4-0.6C86.5,98.7,86.5,97.4,85.7,96.7z"></path> </g> </g> <g> <g> <linearGradient id="SVGID_8_" gradientUnits="userSpaceOnUse" x1="87.974" y1="141.8838" x2="-88.9618" y2="34.6499"> <stop offset="0" style="stop-color:#981332"></stop> <stop offset="1" style="stop-color:#F43453"></stop> </linearGradient> <path class="st7" d="M17,96.7c-0.4-0.4-0.9-0.6-1.4-0.6c-0.5,0-1,0.2-1.4,0.6c-0.4,0.4-0.6,0.9-0.6,1.4s0.2,1,0.6,1.4 c0.4,0.4,0.9,0.6,1.4,0.6c0.5,0,1-0.2,1.4-0.6c0.4-0.4,0.6-0.9,0.6-1.4S17.4,97,17,96.7z"></path> </g> </g> <g> <g> <linearGradient id="SVGID_9_" gradientUnits="userSpaceOnUse" x1="63.1182" y1="152.7651" x2="-10.2679" y2="-73.0941"> <stop offset="0" style="stop-color:#981332"></stop> <stop offset="1" style="stop-color:#F43453"></stop> </linearGradient> <path class="st8" d="M69.9,49.6c-0.4-0.4-0.9-0.8-1.5-1.1c0.5-0.8,0.7-1.7,0.7-2.7c0-1.5-0.6-2.9-1.6-3.9c-0.5-0.5-1-0.8-1.6-1.1 c1-2,0.6-4.6-1.1-6.3c-1.7-1.7-4.2-2-6.3-1.1c-0.3-0.6-0.6-1.1-1.1-1.6c-2.1-2.1-5.6-2.1-7.8,0l-7.8,7.8c-0.1-1.6-1-3.1-2.4-4.1 c-1.2-0.9-2.7-1.2-4.2-0.9c-1.5,0.3-2.8,1.1-3.6,2.4l-5.4,8C24.2,48.3,23,52,23,55.9l0,4.6L0.6,83c-0.8,0.8-0.8,2,0,2.8 C1,86.1,1.5,86.3,2,86.3s1-0.2,1.4-0.6l23.1-23.1c0.4-0.4,0.6-0.9,0.6-1.4l0-5.4c0-3.1,0.9-6.1,2.6-8.6l5.3-8 c0.3-0.4,0.6-0.6,1.1-0.7c0.4-0.1,0.9,0,1.3,0.3c0.7,0.5,0.9,1.5,0.5,2.2l-2.1,3.4c-0.7,1.1-0.4,2.4,0.6,3.2 c1,0.8,2.4,0.7,3.3-0.2l12.9-12.9c0.6-0.6,1.6-0.6,2.3,0c0.3,0.3,0.5,0.7,0.5,1.1c0,0.4-0.1,0.7-0.3,1l-7.6,7.7 c-0.8,0.8-0.8,2,0,2.8c0.8,0.8,2,0.8,2.8,0l9.9-9.9c0.6-0.6,1.6-0.6,2.3,0c0.6,0.6,0.6,1.6,0,2.3l-9.9,9.9c-0.8,0.8-0.8,2,0,2.8 c0.4,0.4,0.9,0.6,1.4,0.6c0.5,0,1-0.2,1.4-0.6l7.6-7.6c0.6-0.5,1.5-0.5,2.1,0.1c0.3,0.3,0.5,0.7,0.5,1.1c0,0.4-0.2,0.8-0.5,1.1 l-7.5,7.5c-0.8,0.8-0.8,2,0,2.8c0.4,0.4,0.9,0.6,1.4,0.6s1-0.2,1.4-0.6l5-5c0.6-0.5,1.5-0.5,2.1,0.1c0.3,0.3,0.5,0.7,0.5,1.1 c0,0.4-0.2,0.8-0.5,1.1L53.1,68.5c-2.9,2.9-6.8,4.5-10.9,4.5c0,0,0,0,0,0l-3.5,0c0,0,0,0,0,0c-0.5,0-1,0.2-1.4,0.6L19.2,91.8 c-0.8,0.8-0.8,2,0,2.8c0.4,0.4,0.9,0.6,1.4,0.6s1-0.2,1.4-0.6l17.6-17.6l2.7,0c0,0,0,0,0,0c5.2,0,10-2,13.7-5.7l13.9-13.9 C72,55.2,72,51.7,69.9,49.6z"></path> </g> </g> </g> </svg> 