<?xml version="1.0" encoding="UTF-8"?> <!-- Generator: Adobe Illustrator 23.0.2, SVG Export Plug-In . SVG Version: 6.00 Build 0) --> <svg xmlns="http://www.w3.org/2000/svg" xmlns:xlink="http://www.w3.org/1999/xlink" id="Capa_1" x="0px" y="0px" viewBox="0 0 100 99.8" style="enable-background:new 0 0 100 99.8;" xml:space="preserve"> <style type="text/css"> .st0{fill:url(#SVGID_1_);} .st1{fill:url(#SVGID_2_);} .st2{fill:url(#SVGID_3_);} .st3{fill:url(#SVGID_4_);} .st4{fill:url(#SVGID_5_);} .st5{fill:url(#SVGID_6_);} .st6{fill:url(#SVGID_7_);} .st7{fill:url(#SVGID_8_);} .st8{fill:url(#SVGID_9_);} .st9{fill:url(#SVGID_10_);} .st10{fill:url(#SVGID_11_);} .st11{fill:url(#SVGID_12_);} .st12{fill:url(#SVGID_13_);} .st13{fill:url(#SVGID_14_);} .st14{fill:url(#SVGID_15_);} .st15{fill:url(#SVGID_16_);} .st16{fill:url(#SVGID_17_);} .st17{fill:url(#SVGID_18_);} .st18{fill:url(#SVGID_19_);} .st19{fill:url(#SVGID_20_);} .st20{fill:url(#SVGID_21_);} .st21{fill:url(#SVGID_22_);} .st22{fill:url(#SVGID_23_);} .st23{fill:url(#SVGID_24_);} .st24{fill:url(#SVGID_25_);} .st25{fill:url(#SVGID_26_);} .st26{fill:#981332;} .st27{fill:#F43453;} .st28{fill:url(#SVGID_27_);} .st29{fill:url(#SVGID_28_);} .st30{fill:url(#SVGID_29_);} .st31{fill:url(#SVGID_30_);} .st32{fill:url(#SVGID_31_);} .st33{fill:url(#SVGID_32_);} .st34{fill:url(#SVGID_33_);} .st35{fill:url(#SVGID_34_);} .st36{fill:url(#SVGID_35_);} .st37{fill:url(#SVGID_36_);} .st38{fill:url(#SVGID_37_);} .st39{fill:url(#SVGID_38_);} .st40{fill:url(#SVGID_39_);} .st41{fill:url(#SVGID_40_);} .st42{fill:url(#SVGID_41_);} .st43{fill:url(#SVGID_42_);} .st44{fill:url(#SVGID_43_);} .st45{fill:url(#SVGID_44_);} .st46{fill:url(#SVGID_45_);} .st47{fill:url(#SVGID_46_);} .st48{fill:url(#SVGID_47_);} </style> <g> <g> <g> <linearGradient id="SVGID_1_" gradientUnits="userSpaceOnUse" x1="52.8717" y1="135.7241" x2="10.1486" y2="4.2357"> <stop offset="0" style="stop-color:#981332"></stop> <stop offset="1" style="stop-color:#F43453"></stop> </linearGradient> <path class="st0" d="M65.8,60.8H47v-17c0-0.9-0.6-1.5-1.5-1.5S44,42.9,44,43.8v26.5l-0.3-0.2l-9.8-18c-1.2-2.9-3.9-4.7-7-4.7H6.7 c-0.9,0-1.5,0.6-1.5,1.5v13.9c-3,0.6-5.1,3.3-5.1,6.5c0,7.6,0,13.5,0,21.5c0,0.9,0.6,1.5,1.5,1.5h3.8c0.3,4.1,3.8,7.4,8.2,7.4 c4.2,0,7.7-3.3,8.2-7.4H27c0.5,4.2,3.9,7.4,8.2,7.4s7.7-3.3,8.2-7.4h2.1c0.9,0,1.5-0.8,1.5-1.5c0-15.1,0-11.8,0-27.1h18.8 c0.9,0,1.5-0.6,1.5-1.5C67.3,61.4,66.7,60.8,65.8,60.8z M8.2,50.3h18.6v0.3c1.8,0,3.5,1.1,4.2,2.9c0,0,0,0.2,0.2,0.2l7.6,13.9 l-0.2-0.2c-0.8-0.3-1.7-0.3-2.3,0.2c-0.8,0.5-1.1,1.2-1.1,2V73h-12v-7.4c0-1.7-1.4-3-3-3H8.2V50.3z M13.5,96.8 c-2.9,0-5.1-2.3-5.1-5.1c0-2.9,2.3-5.1,5.1-5.1s5.1,2.3,5.1,5.1C18.7,94.5,16.3,96.8,13.5,96.8z M35.2,96.8 c-2.9,0-5.1-2.3-5.1-5.1c0-2.9,2.3-5.1,5.1-5.1s5.1,2.3,5.1,5.1C40.3,94.5,38,96.8,35.2,96.8z M44,89.4h-1.1 c-1.1-3.5-4.1-5.9-7.9-5.9s-7,2.6-7.9,5.9h-5.9c-1.1-3.5-4.1-5.9-7.9-5.9s-7,2.6-7.9,5.9H3.1v-7.9H44V89.4z M44.1,78.5h-41v-8.9 c0-2.1,1.7-3.8,3.6-3.8h13.5v8.9c0,0.9,0.6,1.5,1.5,1.5h15c0.9,0,1.5-0.6,1.5-1.5v-3.9l5.9,3.2L44.1,78.5L44.1,78.5z"></path> </g> </g> <g> <g> <linearGradient id="SVGID_2_" gradientUnits="userSpaceOnUse" x1="71.7917" y1="102.8392" x2="31.2721" y2="-21.8674"> <stop offset="0" style="stop-color:#981332"></stop> <stop offset="1" style="stop-color:#F43453"></stop> </linearGradient> <path class="st1" d="M99.4,33.2l-48.4-33c-0.5-0.3-1.2-0.3-1.7,0l-48.6,33c-0.6,0.3-0.8,1.1-0.6,1.7C0.2,35.5,0.8,36,1.6,36h0.9 v8.6c0,0.9,0.6,1.5,1.5,1.5s1.5-0.6,1.5-1.5V36h89v60.9H47.3c-0.9,0-1.5,0.6-1.5,1.5s0.6,1.5,1.5,1.5H96c0.9,0,1.5-0.6,1.5-1.5 V36h0.9c0.6,0,1.2-0.5,1.5-1.1C100.1,34.3,99.8,33.5,99.4,33.2z M6.4,32.9L50,3.3l43.6,29.7L6.4,32.9L6.4,32.9z"></path> </g> </g> <g> <g> <linearGradient id="SVGID_3_" gradientUnits="userSpaceOnUse" x1="69.5294" y1="114.5395" x2="29.5033" y2="-8.6481"> <stop offset="0" style="stop-color:#981332"></stop> <stop offset="1" style="stop-color:#F43453"></stop> </linearGradient> <path class="st2" d="M67.4,74.4H51.7c-0.9,0-1.5,0.6-1.5,1.5v15.7c0,0.9,0.6,1.5,1.5,1.5h15.7c0.9,0,1.5-0.6,1.5-1.5V75.9 C68.9,75,68.2,74.4,67.4,74.4z M65.9,90.1H53.2V77.4h12.7V90.1z"></path> </g> </g> <g> <g> <linearGradient id="SVGID_4_" gradientUnits="userSpaceOnUse" x1="86.3264" y1="98.1947" x2="46.3003" y2="-24.9928"> <stop offset="0" style="stop-color:#981332"></stop> <stop offset="1" style="stop-color:#F43453"></stop> </linearGradient> <path class="st3" d="M89.5,74.4H73.8c-0.9,0-1.5,0.6-1.5,1.5v15.7c0,0.9,0.6,1.5,1.5,1.5h15.7c0.9,0,1.5-0.6,1.5-1.5V75.9 C91,75,90.4,74.4,89.5,74.4z M88,90.1H75.3V77.4H88V90.1z"></path> </g> </g> <g> <g> <linearGradient id="SVGID_5_" gradientUnits="userSpaceOnUse" x1="89.7206" y1="86.5108" x2="49.6946" y2="-36.6767"> <stop offset="0" style="stop-color:#981332"></stop> <stop offset="1" style="stop-color:#F43453"></stop> </linearGradient> <path class="st4" d="M89.5,52.3H73.8c-0.9,0-1.5,0.6-1.5,1.5v15.7c0,0.8,0.6,1.5,1.5,1.5h15.7c0.9,0,1.5-0.6,1.5-1.5V53.8 C91,52.9,90.4,52.3,89.5,52.3z M88,68H75.3V55.3H88V68z"></path> </g> </g> <g> <g> <linearGradient id="SVGID_6_" gradientUnits="userSpaceOnUse" x1="74.7998" y1="96.3759" x2="34.7737" y2="-26.8117"> <stop offset="0" style="stop-color:#981332"></stop> <stop offset="1" style="stop-color:#F43453"></stop> </linearGradient> <path class="st5" d="M67.4,40H51.7c-0.9,0-1.5,0.6-1.5,1.5v15.7c0,0.9,0.6,1.5,1.5,1.5h15.7c0.9,0,1.5-0.6,1.5-1.5V41.6 C68.9,40.6,68.3,40,67.4,40z M65.9,55.6H53.2V42.9h12.7V55.6z"></path> </g> </g> <g> <g> <linearGradient id="SVGID_7_" gradientUnits="userSpaceOnUse" x1="74.1398" y1="93.5484" x2="30.6857" y2="-40.1897"> <stop offset="0" style="stop-color:#981332"></stop> <stop offset="1" style="stop-color:#F43453"></stop> </linearGradient> <path class="st6" d="M50.3,10.8c-5.1,0-9.4,4.2-9.4,9.4s4.2,9.4,9.4,9.4s9.4-4.2,9.4-9.4C59.7,15.1,55.5,10.8,50.3,10.8z M50.3,26.6c-3.5,0-6.4-2.9-6.4-6.4c0-3.5,2.9-6.4,6.4-6.4c3.5,0,6.4,2.9,6.4,6.4S53.8,26.6,50.3,26.6z"></path> </g> </g> </g> </svg> 