<?xml version="1.0" encoding="UTF-8"?> <!-- Generator: Adobe Illustrator 23.0.2, SVG Export Plug-In . SVG Version: 6.00 Build 0) --> <svg xmlns="http://www.w3.org/2000/svg" xmlns:xlink="http://www.w3.org/1999/xlink" id="Capa_1" x="0px" y="0px" viewBox="0 0 100 100" style="enable-background:new 0 0 100 100;" xml:space="preserve"> <style type="text/css"> .st0{fill:url(#SVGID_1_);} .st1{fill:url(#SVGID_2_);} .st2{fill:url(#SVGID_3_);} .st3{fill:url(#SVGID_4_);} .st4{fill:url(#SVGID_5_);} .st5{fill:url(#SVGID_6_);} .st6{fill:url(#SVGID_7_);} .st7{fill:url(#SVGID_8_);} .st8{fill:url(#SVGID_9_);} .st9{fill:url(#SVGID_10_);} .st10{fill:url(#SVGID_11_);} .st11{fill:url(#SVGID_12_);} .st12{fill:url(#SVGID_13_);} .st13{fill:url(#SVGID_14_);} .st14{fill:url(#SVGID_15_);} .st15{fill:url(#SVGID_16_);} .st16{fill:url(#SVGID_17_);} .st17{fill:url(#SVGID_18_);} .st18{fill:url(#SVGID_19_);} .st19{fill:url(#SVGID_20_);} .st20{fill:url(#SVGID_21_);} .st21{fill:url(#SVGID_22_);} .st22{fill:url(#SVGID_23_);} .st23{fill:url(#SVGID_24_);} .st24{fill:url(#SVGID_25_);} .st25{fill:url(#SVGID_26_);} .st26{fill:#981332;} .st27{fill:#F43453;} .st28{fill:url(#SVGID_27_);} .st29{fill:url(#SVGID_28_);} .st30{fill:url(#SVGID_29_);} .st31{fill:url(#SVGID_30_);} .st32{fill:url(#SVGID_31_);} .st33{fill:url(#SVGID_32_);} .st34{fill:url(#SVGID_33_);} .st35{fill:url(#SVGID_34_);} .st36{fill:url(#SVGID_35_);} .st37{fill:url(#SVGID_36_);} .st38{fill:url(#SVGID_37_);} .st39{fill:url(#SVGID_38_);} .st40{fill:url(#SVGID_39_);} .st41{fill:url(#SVGID_40_);} .st42{fill:url(#SVGID_41_);} .st43{fill:url(#SVGID_42_);} .st44{fill:url(#SVGID_43_);} .st45{fill:url(#SVGID_44_);} .st46{fill:url(#SVGID_45_);} .st47{fill:url(#SVGID_46_);} .st48{fill:url(#SVGID_47_);} </style> <g> <g> <g> <linearGradient id="SVGID_1_" gradientUnits="userSpaceOnUse" x1="73.6694" y1="125.5503" x2="17.3173" y2="-47.8837"> <stop offset="0" style="stop-color:#981332"></stop> <stop offset="1" style="stop-color:#F43453"></stop> </linearGradient> <path class="st0" d="M50.1,23.3c-16.3,0-29.6,13.3-29.6,29.6s13.3,29.6,29.6,29.6s29.6-13.3,29.6-29.6S66.4,23.3,50.1,23.3z M50.1,78.6c-14.2,0-25.7-11.5-25.7-25.7c0-14.2,11.5-25.7,25.7-25.7c14.2,0,25.7,11.5,25.7,25.7S64.2,78.6,50.1,78.6z"></path> </g> </g> <g> <g> <linearGradient id="SVGID_2_" gradientUnits="userSpaceOnUse" x1="73.6693" y1="125.5503" x2="17.3172" y2="-47.8835"> <stop offset="0" style="stop-color:#981332"></stop> <stop offset="1" style="stop-color:#F43453"></stop> </linearGradient> <path class="st1" d="M67.6,43.3c-0.5-0.9-1.7-1.3-2.7-0.8c0,0-0.1,0-0.1,0.1c-0.9,0.5-1.2,1.7-0.7,2.6c1.3,2.3,2,5,2,7.7 c0,8.8-7.2,16-16,16c-8.8,0-16-7.2-16-16c0-8.8,7.2-16,16-16c0.8,0,1.7,0.1,2.5,0.2c1,0.2,2-0.5,2.2-1.5c0,0,0-0.1,0-0.1 c0.2-1.1-0.6-2.1-1.6-2.2c-1-0.2-2.1-0.2-3.1-0.2c-11,0-19.9,8.9-19.9,19.9s8.9,19.9,19.9,19.9S70,63.9,70,52.9 C70,49.5,69.2,46.2,67.6,43.3z"></path> </g> </g> <g> <g> <linearGradient id="SVGID_3_" gradientUnits="userSpaceOnUse" x1="84.3767" y1="109.4106" x2="28.0506" y2="-63.9434"> <stop offset="0" style="stop-color:#981332"></stop> <stop offset="1" style="stop-color:#F43453"></stop> </linearGradient> <path class="st2" d="M62.5,36.6c-0.1-0.1-0.2-0.2-0.3-0.2c-0.1-0.1-0.2-0.1-0.3-0.2c-0.1,0-0.2-0.1-0.4-0.1 C61.3,36,61,36,60.8,36c-0.1,0-0.2,0.1-0.4,0.1c-0.1,0-0.2,0.1-0.3,0.2c-0.1,0.1-0.2,0.2-0.3,0.2c-0.1,0.1-0.2,0.2-0.2,0.3 c-0.1,0.1-0.1,0.2-0.2,0.3c0,0.1-0.1,0.2-0.1,0.2c0,0,0,0.1,0,0.1c0,0.1,0,0.3,0,0.4c0,0.1,0,0.3,0,0.4c0,0.1,0.1,0.2,0.1,0.4 c0,0.1,0.1,0.2,0.2,0.3c0.1,0.1,0.2,0.2,0.2,0.3c0.1,0.1,0.2,0.2,0.3,0.2c0.1,0.1,0.2,0.1,0.3,0.2c0.1,0,0.2,0.1,0.4,0.1 c0.1,0,0.3,0,0.4,0s0.3,0,0.4,0c0.1,0,0.2-0.1,0.4-0.1c0.1,0,0.2-0.1,0.3-0.2c0,0,0,0,0,0c0.1-0.1,0.2-0.2,0.3-0.2 c0.1-0.1,0.2-0.2,0.2-0.3c0.1-0.1,0.1-0.2,0.2-0.3c0-0.1,0.1-0.2,0.1-0.4c0-0.1,0-0.3,0-0.4C63.1,37.4,62.9,36.9,62.5,36.6z"></path> </g> </g> <g> <g> <linearGradient id="SVGID_4_" gradientUnits="userSpaceOnUse" x1="107.907" y1="109.7639" x2="29.9132" y2="-130.2762"> <stop offset="0" style="stop-color:#981332"></stop> <stop offset="1" style="stop-color:#F43453"></stop> </linearGradient> <path class="st3" d="M100,80.9l-6.3-51.6c-0.4-3.6-1.6-7-3.4-10.2c-1.1-1.9-2.4-3.7-4-5.3l-0.2-0.2c-1.3-1.4-3.2-1.7-5-0.9 c-1.7,0.8-2.7,2.5-2.4,4.4l8,65.4c0,0.2,0.1,0.4,0.1,0.6c0.7,3,3.4,5.2,6.5,5.2c0.3,0,0.5,0,0.8,0c2.2-0.3,3.9-1.5,5-3.3 c0.1-0.2,0.2-0.4,0.3-0.6c0.1-0.2,0.2-0.4,0.2-0.6C100,82.9,100.1,81.9,100,80.9z M82.6,16.6c0-0.1,0-0.3,0.2-0.4 c0.1,0,0.1,0,0.2,0c0.1,0,0.2,0.1,0.3,0.1l0.2,0.2c1.3,1.4,2.5,2.9,3.4,4.6c1.5,2.7,2.5,5.6,2.9,8.7l3.4,27.5l-5.4,0.7L82.6,16.6 z M95.9,82.7c-0.4,0.9-1.2,1.6-2.2,1.7c-1.5,0.2-2.9-0.9-3-2.4l-2.5-20.2l5.4-0.7l2.5,20.2C96.1,81.8,96.1,82.3,95.9,82.7z"></path> </g> </g> <g> <g> <linearGradient id="SVGID_5_" gradientUnits="userSpaceOnUse" x1="68.3598" y1="219.3343" x2="-21.0048" y2="-55.7016"> <stop offset="0" style="stop-color:#981332"></stop> <stop offset="1" style="stop-color:#F43453"></stop> </linearGradient> <path class="st4" d="M24.1,14.1c-1.1-0.1-2,0.6-2.2,1.7l-1.8,14.5c-0.3,2.3-2.1,4-4.4,4.1l-1.3-0.2l2.3-19c0.1-1.1-0.6-2-1.7-2.2 c-1.1-0.1-2,0.6-2.2,1.7l-2.3,19l-1.3-0.2c-2.2-0.7-3.5-2.8-3.2-5l1.8-14.5C8,13,7.2,12,6.2,11.9c-1.1-0.1-2,0.6-2.2,1.7 L2.2,28.1c-0.4,3.6,1.4,7,4.5,8.6L0.1,79.5c0,0,0,0,0,0c-0.3,1.8,0.2,3.6,1.3,5.1S4.1,87,6,87.2l0,0c0.3,0,0.6,0.1,0.8,0.1 c1.5,0,3-0.5,4.3-1.5c1.4-1.2,2.3-2.8,2.5-4.7L17.5,38c3.4-0.8,6-3.7,6.5-7.3l1.8-14.5C25.9,15.2,25.2,14.2,24.1,14.1z M9.7,80.7 c-0.1,0.8-0.5,1.5-1.1,2c-0.6,0.5-1.4,0.7-2.2,0.6l0,0c-0.8-0.1-1.5-0.5-1.9-1.1c-0.5-0.6-0.7-1.4-0.6-2.2l6.6-42.4l1.5,0.2 c0,0,0,0,0,0c0,0,0,0,0,0l1.5,0.2L9.7,80.7z"></path> </g> </g> </g> </svg> 