<?xml version="1.0" encoding="UTF-8"?> <!-- Generator: Adobe Illustrator 23.0.2, SVG Export Plug-In . SVG Version: 6.00 Build 0) --> <svg xmlns="http://www.w3.org/2000/svg" xmlns:xlink="http://www.w3.org/1999/xlink" id="Capa_1" x="0px" y="0px" viewBox="0 0 100 100.6" style="enable-background:new 0 0 100 100.6;" xml:space="preserve"> <style type="text/css"> .st0{fill:url(#SVGID_1_);} .st1{fill:url(#SVGID_2_);} .st2{fill:url(#SVGID_3_);} .st3{fill:url(#SVGID_4_);} .st4{fill:url(#SVGID_5_);} .st5{fill:url(#SVGID_6_);} .st6{fill:url(#SVGID_7_);} .st7{fill:url(#SVGID_8_);} .st8{fill:url(#SVGID_9_);} .st9{fill:url(#SVGID_10_);} .st10{fill:url(#SVGID_11_);} .st11{fill:url(#SVGID_12_);} .st12{fill:url(#SVGID_13_);} .st13{fill:url(#SVGID_14_);} .st14{fill:url(#SVGID_15_);} .st15{fill:url(#SVGID_16_);} .st16{fill:url(#SVGID_17_);} .st17{fill:url(#SVGID_18_);} .st18{fill:url(#SVGID_19_);} .st19{fill:url(#SVGID_20_);} .st20{fill:url(#SVGID_21_);} .st21{fill:url(#SVGID_22_);} .st22{fill:url(#SVGID_23_);} .st23{fill:url(#SVGID_24_);} .st24{fill:url(#SVGID_25_);} .st25{fill:url(#SVGID_26_);} .st26{fill:#981332;} .st27{fill:#F43453;} </style> <g> <linearGradient id="SVGID_1_" gradientUnits="userSpaceOnUse" x1="62.0113" y1="113.3447" x2="33.2654" y2="24.8738"> <stop offset="0" style="stop-color:#981332"></stop> <stop offset="1" style="stop-color:#F43453"></stop> </linearGradient> <rect x="48" y="73.8" class="st0" width="3.4" height="3.4"></rect> <linearGradient id="SVGID_2_" gradientUnits="userSpaceOnUse" x1="64.2982" y1="106.9692" x2="35.5522" y2="18.4984"> <stop offset="0" style="stop-color:#981332"></stop> <stop offset="1" style="stop-color:#F43453"></stop> </linearGradient> <rect x="48" y="60.4" class="st1" width="3.4" height="3.4"></rect> <linearGradient id="SVGID_3_" gradientUnits="userSpaceOnUse" x1="58.4878" y1="113.0814" x2="29.7419" y2="24.6105"> <stop offset="0" style="stop-color:#981332"></stop> <stop offset="1" style="stop-color:#F43453"></stop> </linearGradient> <rect x="41.3" y="63.7" class="st2" width="3.4" height="3.4"></rect> <linearGradient id="SVGID_4_" gradientUnits="userSpaceOnUse" x1="57.3444" y1="116.2691" x2="28.5985" y2="27.7982"> <stop offset="0" style="stop-color:#981332"></stop> <stop offset="1" style="stop-color:#F43453"></stop> </linearGradient> <rect x="41.3" y="70.4" class="st3" width="3.4" height="3.4"></rect> <linearGradient id="SVGID_5_" gradientUnits="userSpaceOnUse" x1="67.8219" y1="107.2324" x2="39.0759" y2="18.7614"> <stop offset="0" style="stop-color:#981332"></stop> <stop offset="1" style="stop-color:#F43453"></stop> </linearGradient> <rect x="54.7" y="70.4" class="st4" width="3.4" height="3.4"></rect> <linearGradient id="SVGID_6_" gradientUnits="userSpaceOnUse" x1="58.727" y1="107.3713" x2="29.9811" y2="18.9004"> <stop offset="0" style="stop-color:#981332"></stop> <stop offset="1" style="stop-color:#F43453"></stop> </linearGradient> <rect x="38" y="46.9" class="st5" width="3.4" height="3.4"></rect> <linearGradient id="SVGID_7_" gradientUnits="userSpaceOnUse" x1="61.0138" y1="100.996" x2="32.2679" y2="12.5251"> <stop offset="0" style="stop-color:#981332"></stop> <stop offset="1" style="stop-color:#F43453"></stop> </linearGradient> <rect x="38" y="33.5" class="st6" width="3.4" height="3.4"></rect> <linearGradient id="SVGID_8_" gradientUnits="userSpaceOnUse" x1="55.2035" y1="107.1081" x2="26.4576" y2="18.6371"> <stop offset="0" style="stop-color:#981332"></stop> <stop offset="1" style="stop-color:#F43453"></stop> </linearGradient> <rect x="31.3" y="36.9" class="st7" width="3.4" height="3.4"></rect> <linearGradient id="SVGID_9_" gradientUnits="userSpaceOnUse" x1="74.4431" y1="93.8163" x2="45.6971" y2="5.3454"> <stop offset="0" style="stop-color:#981332"></stop> <stop offset="1" style="stop-color:#F43453"></stop> </linearGradient> <rect x="58.1" y="46.9" class="st8" width="3.4" height="3.4"></rect> <linearGradient id="SVGID_10_" gradientUnits="userSpaceOnUse" x1="70.9196" y1="93.5531" x2="42.1736" y2="5.0822"> <stop offset="0" style="stop-color:#981332"></stop> <stop offset="1" style="stop-color:#F43453"></stop> </linearGradient> <rect x="51.4" y="36.9" class="st9" width="3.4" height="3.4"></rect> <linearGradient id="SVGID_11_" gradientUnits="userSpaceOnUse" x1="81.397" y1="84.5164" x2="52.651" y2="-3.9546"> <stop offset="0" style="stop-color:#981332"></stop> <stop offset="1" style="stop-color:#F43453"></stop> </linearGradient> <rect x="64.8" y="36.9" class="st10" width="3.4" height="3.4"></rect> <linearGradient id="SVGID_12_" gradientUnits="userSpaceOnUse" x1="69.7761" y1="96.7408" x2="41.0302" y2="8.2699"> <stop offset="0" style="stop-color:#981332"></stop> <stop offset="1" style="stop-color:#F43453"></stop> </linearGradient> <rect x="51.4" y="43.6" class="st11" width="3.4" height="3.4"></rect> <linearGradient id="SVGID_13_" gradientUnits="userSpaceOnUse" x1="75.5865" y1="90.6287" x2="46.8405" y2="2.1577"> <stop offset="0" style="stop-color:#981332"></stop> <stop offset="1" style="stop-color:#F43453"></stop> </linearGradient> <rect x="58.1" y="40.2" class="st12" width="3.4" height="3.4"></rect> <linearGradient id="SVGID_14_" gradientUnits="userSpaceOnUse" x1="50.0114" y1="116.5397" x2="21.2655" y2="28.0686"> <stop offset="0" style="stop-color:#981332"></stop> <stop offset="1" style="stop-color:#F43453"></stop> </linearGradient> <rect x="27.9" y="52" class="st13" width="3.4" height="3.4"></rect> <linearGradient id="SVGID_15_" gradientUnits="userSpaceOnUse" x1="44.2011" y1="122.6518" x2="15.4551" y2="34.1808"> <stop offset="0" style="stop-color:#981332"></stop> <stop offset="1" style="stop-color:#F43453"></stop> </linearGradient> <rect x="21.2" y="55.3" class="st14" width="3.4" height="3.4"></rect> <linearGradient id="SVGID_16_" gradientUnits="userSpaceOnUse" x1="43.0576" y1="125.8394" x2="14.3117" y2="37.3685"> <stop offset="0" style="stop-color:#981332"></stop> <stop offset="1" style="stop-color:#F43453"></stop> </linearGradient> <rect x="21.2" y="62" class="st15" width="3.4" height="3.4"></rect> <linearGradient id="SVGID_17_" gradientUnits="userSpaceOnUse" x1="53.5351" y1="116.8027" x2="24.7891" y2="28.3318"> <stop offset="0" style="stop-color:#981332"></stop> <stop offset="1" style="stop-color:#F43453"></stop> </linearGradient> <rect x="34.6" y="62" class="st16" width="3.4" height="3.4"></rect> <linearGradient id="SVGID_18_" gradientUnits="userSpaceOnUse" x1="48.868" y1="119.7273" x2="20.122" y2="31.2564"> <stop offset="0" style="stop-color:#981332"></stop> <stop offset="1" style="stop-color:#F43453"></stop> </linearGradient> <rect x="27.9" y="58.7" class="st17" width="3.4" height="3.4"></rect> <linearGradient id="SVGID_19_" gradientUnits="userSpaceOnUse" x1="79.1567" y1="95.805" x2="50.4107" y2="7.3341"> <stop offset="0" style="stop-color:#981332"></stop> <stop offset="1" style="stop-color:#F43453"></stop> </linearGradient> <rect x="68.1" y="65.4" class="st18" width="3.4" height="3.4"></rect> <linearGradient id="SVGID_20_" gradientUnits="userSpaceOnUse" x1="81.4435" y1="89.4297" x2="52.6976" y2="0.9586"> <stop offset="0" style="stop-color:#981332"></stop> <stop offset="1" style="stop-color:#F43453"></stop> </linearGradient> <rect x="68.1" y="52" class="st19" width="3.4" height="3.4"></rect> <linearGradient id="SVGID_21_" gradientUnits="userSpaceOnUse" x1="86.1106" y1="86.5051" x2="57.3646" y2="-1.9658"> <stop offset="0" style="stop-color:#981332"></stop> <stop offset="1" style="stop-color:#F43453"></stop> </linearGradient> <rect x="74.8" y="55.3" class="st20" width="3.4" height="3.4"></rect> <linearGradient id="SVGID_22_" gradientUnits="userSpaceOnUse" x1="74.4898" y1="98.7295" x2="45.7438" y2="10.2585"> <stop offset="0" style="stop-color:#981332"></stop> <stop offset="1" style="stop-color:#F43453"></stop> </linearGradient> <rect x="61.4" y="62" class="st21" width="3.4" height="3.4"></rect> <linearGradient id="SVGID_23_" gradientUnits="userSpaceOnUse" x1="84.9672" y1="89.6927" x2="56.2212" y2="1.2218"> <stop offset="0" style="stop-color:#981332"></stop> <stop offset="1" style="stop-color:#F43453"></stop> </linearGradient> <rect x="74.8" y="62" class="st22" width="3.4" height="3.4"></rect> <linearGradient id="SVGID_24_" gradientUnits="userSpaceOnUse" x1="61.5614" y1="156.6124" x2="17.7448" y2="21.7589"> <stop offset="0" style="stop-color:#981332"></stop> <stop offset="1" style="stop-color:#F43453"></stop> </linearGradient> <rect x="12.8" class="st23" width="3.4" height="23.5"></rect> <linearGradient id="SVGID_25_" gradientUnits="userSpaceOnUse" x1="39.5757" y1="108.0336" x2="14.3853" y2="30.5056"> <stop offset="0" style="stop-color:#981332"></stop> <stop offset="1" style="stop-color:#F43453"></stop> </linearGradient> <rect x="14.5" y="36.9" class="st24" width="5" height="3.4"></rect> <linearGradient id="SVGID_26_" gradientUnits="userSpaceOnUse" x1="70.5724" y1="107.9797" x2="39.9547" y2="13.7483"> <stop offset="0" style="stop-color:#981332"></stop> <stop offset="1" style="stop-color:#F43453"></stop> </linearGradient> <path class="st25" d="M79.9,0C68.8,0,59.8,9,59.8,20.1v5.1c-3.6,0-7.1,1.1-10.1,3.3c-3.2-2.4-7-3.5-11-3.3 c-4.1,0.2-7.9,1.9-10.8,4.8c-1-1.6-2.7-2.8-4.7-3.1L27.9,2l-3.3-0.6l-4.8,25.5H9.2L4.4,1.4L1.1,2l4.7,24.9C4.3,27.1,3,27.7,2,28.8 c-1.3,1.3-2,2.9-2,4.7c0,0.3,0,0.6,0,0.8l7.2,59.8c0.4,3.7,3.5,6.5,7.3,6.5l0,0c0,0,0,0,0,0s0,0,0,0c0.6,0,1.1-0.1,1.6-0.2 c0,0,0,0,0.1,0c0,0,0,0,0.1,0c2.6-0.6,4.7-2.7,5.3-5.3c0.1-0.3,0.1-0.7,0.2-1l0,0l2.1-17.9c1.8,0.6,3.7,1,5.6,1 c1.5,0,3.1-0.2,4.6-0.7c1.6,1.9,3.4,3.4,5.5,4.6v17.8c0,0.9,0.8,1.7,1.7,1.7h16.8c0.9,0,1.7-0.7,1.7-1.7V81.1 c0.6-0.3,1.2-0.7,1.8-1.1c1.4-1,2.6-2.2,3.7-3.5c0,0,0.1,0,0.1,0l-0.1,0.1c0.2,0.2,0.4,0.5,0.6,0.7l12.3,12.3v11h3.4v-11l12.1-12.1 c4.1-4.1,6.4-9.6,6.4-15.4V20.1C100,9,91,0,79.9,0z M20.4,77.1h-5.9v3.4H20l-1.6,13.2c-0.2,2-1.9,3.5-4,3.5c-2,0-3.7-1.5-4-3.6 l-0.4-3.2h2.7v-3.4H9.8l-2-16.8h5.1v-3.4H7.3l-2-16.8h4.1v-3.4H4.9l-0.8-6.7h7v-3.4H3.7l-0.4-3c0-0.1,0-0.3,0-0.4 c0-0.9,0.4-1.7,1-2.4c0.6-0.6,1.5-1,2.4-1h15.5c1.6,0,3,1.2,3.3,2.8c-2.3,3.5-3.1,7.8-2.4,11.9c-3.6,1.5-6.6,4.2-8.4,7.7 c-2.1,4-2.5,8.5-1.2,12.8c1.2,4,3.8,7.3,7.2,9.3L20.4,77.1z M56.4,90.5h-5v3.4h5v3.4H43v-6.7h3.4v-3.4H43v-4.6 c2.2,0.8,4.4,1.2,6.7,1.2c2.2,0,4.5-0.4,6.7-1.1V90.5z M65.2,72.9c-0.7-0.3-1.5,0-1.9,0.6c-1,1.4-2.3,2.7-3.7,3.7 c-7.5,5.4-18,3.8-23.4-3.7c-0.3-0.4-0.8-0.7-1.4-0.7c-0.2,0-0.4,0-0.6,0.1c-1.5,0.6-3,0.8-4.6,0.8c0,0,0,0,0,0 c-5.9,0-11.1-3.8-12.8-9.5c-1.1-3.4-0.7-7.1,1-10.2c1.7-3.2,4.5-5.5,7.9-6.5c0.9-0.3,1.4-1.2,1.1-2c-1.2-4.4-0.1-9.1,2.9-12.5 c2.4-2.7,5.7-4.3,9.2-4.5c3.6-0.2,7,1,9.7,3.4c0.6,0.6,1.6,0.6,2.2,0c3.4-3,8.1-4.1,12.5-2.9c7.1,1.9,11.4,9.3,9.4,16.5 c-0.2,0.9,0.3,1.8,1.1,2c5.7,1.7,9.5,6.9,9.5,12.8c0,3.6-1.4,6.9-3.9,9.5c-2.5,2.5-5.9,3.9-9.5,3.9C68.3,73.8,66.7,73.5,65.2,72.9z M78.2,45.8c-0.6-0.4-1.3-0.7-1.9-1c0.2-1.3,0.3-2.7,0.2-4l1.7,1.7V45.8z M70.5,77.1c2.7-0.1,5.4-0.9,7.7-2.2v9.9L70.5,77.1z M96.6,62c0,4.9-1.9,9.6-5.4,13l-9.7,9.7v-12l9.6-9.6l-2.4-2.4l-2.4,2.4c0.2-0.9,0.2-1.9,0.2-2.8c0-2.3-0.4-4.5-1.3-6.5l5.8-5.8 l-2.4-2.4l-5.1,5.1c-0.6-0.9-1.3-1.7-2.1-2.5v-5.7l9.6-9.6l-2.4-2.4l-7.2,7.2V27.5l9.6-9.6l-2.4-2.4l-7.2,7.2v-11h-3.4v11L71,15.6 L68.6,18l9.6,9.6v10.3l-3.6-3.6c-2.1-4-5.8-7.2-10.5-8.5c-0.3-0.1-0.7-0.2-1-0.2v-5.4c0-9.2,7.5-16.8,16.8-16.8s16.8,7.5,16.8,16.8 V62z"></path> </g> </svg> 